<?xml version="1.0" encoding="UTF-8" standalone="no"?>
<!-- Created with Inkscape (http://www.inkscape.org/) -->
<svg
   xmlns:dc="http://purl.org/dc/elements/1.1/"
   xmlns:cc="http://creativecommons.org/ns#"
   xmlns:rdf="http://www.w3.org/1999/02/22-rdf-syntax-ns#"
   xmlns:svg="http://www.w3.org/2000/svg"
   xmlns="http://www.w3.org/2000/svg"
   xmlns:xlink="http://www.w3.org/1999/xlink"
   xmlns:sodipodi="http://sodipodi.sourceforge.net/DTD/sodipodi-0.dtd"
   xmlns:inkscape="http://www.inkscape.org/namespaces/inkscape"
   width="48"
   height="48"
   id="svg2383"
   sodipodi:version="0.32"
   inkscape:version="0.46"
   sodipodi:docname="input_zg.svg"
   inkscape:output_extension="org.inkscape.output.svg.inkscape"
   version="1.0"
   style="display:inline">
  <defs
     id="defs2385">
    <linearGradient
       id="linearGradient3374">
      <stop
         style="stop-color:#ffffff;stop-opacity:1;"
         offset="0"
         id="stop3376" />
      <stop
         id="stop3382"
         offset="0.34158009"
         style="stop-color:#000000;stop-opacity:1;" />
      <stop
         style="stop-color:#000000;stop-opacity:1;"
         offset="1"
         id="stop3378" />
    </linearGradient>
    <linearGradient
       id="linearGradient3315">
      <stop
         style="stop-color:#000000;stop-opacity:0;"
         offset="0"
         id="stop3317" />
      <stop
         id="stop3323"
         offset="0.92799723"
         style="stop-color:#000000;stop-opacity:0.52631581;" />
      <stop
         style="stop-color:#000000;stop-opacity:0.66447371;"
         offset="1"
         id="stop3319" />
    </linearGradient>
    <linearGradient
       id="linearGradient5535">
      <stop
         style="stop-color:#000000;stop-opacity:1;"
         offset="0"
         id="stop5537" />
      <stop
         id="stop5545"
         offset="0.09333333"
         style="stop-color:#000000;stop-opacity:1;" />
      <stop
         id="stop5543"
         offset="0.28675556"
         style="stop-color:#a6a6a6;stop-opacity:1;" />
      <stop
         style="stop-color:#000000;stop-opacity:1;"
         offset="0.51499379"
         id="stop5547" />
      <stop
         style="stop-color:#000000;stop-opacity:1;"
         offset="1"
         id="stop5539" />
    </linearGradient>
    <linearGradient
       id="linearGradient5229">
      <stop
         style="stop-color:#ffffff;stop-opacity:1;"
         offset="0"
         id="stop5231" />
      <stop
         id="stop5241"
         offset="0.99000001"
         style="stop-color:#ffffff;stop-opacity:0.08552632;" />
      <stop
         style="stop-color:#ffffff;stop-opacity:0;"
         offset="1"
         id="stop5233" />
    </linearGradient>
    <linearGradient
       id="linearGradient5223">
      <stop
         id="stop5225"
         offset="0"
         style="stop-color:#ffffff;stop-opacity:1;" />
      <stop
         id="stop5227"
         offset="1"
         style="stop-color:#ffffff;stop-opacity:0;" />
    </linearGradient>
    <linearGradient
       id="linearGradient5057">
      <stop
         style="stop-color:#e3e3e3;stop-opacity:1;"
         offset="0"
         id="stop5059" />
      <stop
         id="stop5483"
         offset="0.57638872"
         style="stop-color:#e8e6e8;stop-opacity:1;" />
      <stop
         style="stop-color:#474647;stop-opacity:1;"
         offset="0.81564444"
         id="stop5467" />
      <stop
         id="stop5481"
         offset="0.90782225"
         style="stop-color:#efedef;stop-opacity:1;" />
      <stop
         style="stop-color:#ededed;stop-opacity:1;"
         offset="1"
         id="stop5061" />
    </linearGradient>
    <linearGradient
       id="linearGradient3165">
      <stop
         style="stop-color:#007700;stop-opacity:1;"
         offset="0"
         id="stop3167" />
      <stop
         id="stop3348"
         offset="0.70666665"
         style="stop-color:#2d9a25;stop-opacity:1;" />
      <stop
         style="stop-color:#2b7421;stop-opacity:1;"
         offset="1"
         id="stop3169" />
    </linearGradient>
    <inkscape:perspective
       sodipodi:type="inkscape:persp3d"
       inkscape:vp_x="0 : 24 : 1"
       inkscape:vp_y="6.1230318e-14 : 1000 : 0"
       inkscape:vp_z="48 : 24 : 1"
       inkscape:persp3d-origin="24 : 16 : 1"
       id="perspective2391" />
    <linearGradient
       inkscape:collect="always"
       xlink:href="#linearGradient3165"
       id="linearGradient3170"
       x1="9.4285707"
       y1="16.928572"
       x2="21.285713"
       y2="16.928572"
       gradientUnits="userSpaceOnUse" />
    <linearGradient
       inkscape:collect="always"
       xlink:href="#linearGradient3165"
       id="linearGradient3182"
       x1="4"
       y1="22.214285"
       x2="24.428572"
       y2="22.214285"
       gradientUnits="userSpaceOnUse" />
    <linearGradient
       inkscape:collect="always"
       xlink:href="#linearGradient3165"
       id="linearGradient3209"
       gradientUnits="userSpaceOnUse"
       x1="7.746789"
       y1="27.427807"
       x2="22.480242"
       y2="13.872649" />
    <linearGradient
       inkscape:collect="always"
       xlink:href="#linearGradient3165"
       id="linearGradient3213"
       gradientUnits="userSpaceOnUse"
       x1="8.4049778"
       y1="28.256899"
       x2="23.510868"
       y2="13.821767" />
    <linearGradient
       inkscape:collect="always"
       xlink:href="#linearGradient3165"
       id="linearGradient3220"
       gradientUnits="userSpaceOnUse"
       x1="8.4049778"
       y1="28.256899"
       x2="23.510868"
       y2="13.821767" />
    <linearGradient
       inkscape:collect="always"
       xlink:href="#linearGradient3165"
       id="linearGradient3226"
       gradientUnits="userSpaceOnUse"
       x1="8.4049778"
       y1="28.256899"
       x2="23.510868"
       y2="13.821767" />
    <linearGradient
       inkscape:collect="always"
       xlink:href="#linearGradient3165"
       id="linearGradient3231"
       gradientUnits="userSpaceOnUse"
       x1="8.4049778"
       y1="28.256899"
       x2="23.510868"
       y2="13.821767" />
    <linearGradient
       inkscape:collect="always"
       xlink:href="#linearGradient3165"
       id="linearGradient3234"
       gradientUnits="userSpaceOnUse"
       x1="8.4049778"
       y1="28.256899"
       x2="23.510868"
       y2="13.821767"
       gradientTransform="matrix(0.7783402,0,0,0.8510982,20.293591,5.3791756)" />
    <linearGradient
       inkscape:collect="always"
       xlink:href="#linearGradient3165"
       id="linearGradient3236"
       gradientUnits="userSpaceOnUse"
       x1="7.746789"
       y1="27.427807"
       x2="22.480242"
       y2="13.872649" />
    <linearGradient
       inkscape:collect="always"
       xlink:href="#linearGradient3165"
       id="linearGradient2404"
       gradientUnits="userSpaceOnUse"
       gradientTransform="matrix(1.4588402,0,0,1.4048982,49.195745,-11.087965)"
       x1="17.28125"
       y1="29.756697"
       x2="47.526787"
       y2="0.7566964" />
    <linearGradient
       inkscape:collect="always"
       xlink:href="#linearGradient3165"
       id="linearGradient3183"
       x1="10.56702"
       y1="37.847939"
       x2="55.943497"
       y2="-8.0981693"
       gradientUnits="userSpaceOnUse"
       gradientTransform="matrix(0.9452362,0,0,0.9452361,1.5728255,0.5656012)" />
    <linearGradient
       inkscape:collect="always"
       xlink:href="#linearGradient3165"
       id="linearGradient3871"
       gradientUnits="userSpaceOnUse"
       gradientTransform="matrix(0.9452362,0,0,0.9452361,21.00127,7.1711335)"
       x1="10.56702"
       y1="37.847939"
       x2="55.943497"
       y2="-8.0981693" />
    <linearGradient
       inkscape:collect="always"
       xlink:href="#linearGradient3165"
       id="linearGradient3222"
       x1="-55.213169"
       y1="18.063894"
       x2="3.6383934"
       y2="18.063894"
       gradientUnits="userSpaceOnUse" />
    <linearGradient
       inkscape:collect="always"
       xlink:href="#linearGradient3165"
       id="linearGradient2497"
       gradientUnits="userSpaceOnUse"
       gradientTransform="matrix(0.7914547,0,0,0.8014411,-11.56534,-0.8858535)"
       x1="-55.213169"
       y1="18.063894"
       x2="3.6383934"
       y2="18.063894" />
    <linearGradient
       inkscape:collect="always"
       xlink:href="#linearGradient3165"
       id="linearGradient3282"
       gradientUnits="userSpaceOnUse"
       gradientTransform="matrix(0.7914547,0,0,0.8014411,-11.56534,-0.8858535)"
       x1="-55.213169"
       y1="18.063894"
       x2="3.6383934"
       y2="18.063894" />
    <linearGradient
       inkscape:collect="always"
       xlink:href="#linearGradient3165"
       id="linearGradient3265"
       x1="4.9511323"
       y1="18.273741"
       x2="44.6035"
       y2="18.273741"
       gradientUnits="userSpaceOnUse" />
    <inkscape:perspective
       id="perspective3304"
       inkscape:persp3d-origin="372.04724 : 350.78739 : 1"
       inkscape:vp_z="744.09448 : 526.18109 : 1"
       inkscape:vp_y="0 : 1000 : 0"
       inkscape:vp_x="0 : 526.18109 : 1"
       sodipodi:type="inkscape:persp3d" />
    <radialGradient
       inkscape:collect="always"
       xlink:href="#linearGradient3165"
       id="radialGradient3416"
       gradientUnits="userSpaceOnUse"
       gradientTransform="matrix(1,0,0,0.7445946,0,5.219848)"
       spreadMethod="pad"
       cx="55.875"
       cy="20.4375"
       fx="55.875"
       fy="20.4375"
       r="46.25" />
    <inkscape:perspective
       id="perspective3445"
       inkscape:persp3d-origin="372.04724 : 350.78739 : 1"
       inkscape:vp_z="744.09448 : 526.18109 : 1"
       inkscape:vp_y="0 : 1000 : 0"
       inkscape:vp_x="0 : 526.18109 : 1"
       sodipodi:type="inkscape:persp3d" />
    <filter
       inkscape:collect="always"
       id="filter5219">
      <feGaussianBlur
         inkscape:collect="always"
         stdDeviation="0.084747469"
         id="feGaussianBlur5221" />
    </filter>
    <radialGradient
       inkscape:collect="always"
       xlink:href="#linearGradient5229"
       id="radialGradient5235"
       cx="19.754795"
       cy="-0.820117"
       fx="19.754795"
       fy="-0.820117"
       r="10.827573"
       gradientTransform="matrix(1,0,0,0.5594525,0,3.5275447)"
       gradientUnits="userSpaceOnUse" />
    <linearGradient
       inkscape:collect="always"
       xlink:href="#linearGradient5057"
       id="linearGradient5463"
       x1="25.116856"
       y1="22.80932"
       x2="25.116856"
       y2="27.120842"
       gradientUnits="userSpaceOnUse" />
    <linearGradient
       inkscape:collect="always"
       xlink:href="#linearGradient5535"
       id="linearGradient5541"
       x1="27.619066"
       y1="22.8125"
       x2="27.654226"
       y2="27.125"
       gradientUnits="userSpaceOnUse" />
    <linearGradient
       inkscape:collect="always"
       xlink:href="#linearGradient5535"
       id="linearGradient5550"
       gradientUnits="userSpaceOnUse"
       x1="27.619066"
       y1="22.8125"
       x2="27.654226"
       y2="27.125"
       gradientTransform="matrix(1,0,0,0.9563586,7.5281332e-2,1.0816041)" />
    <radialGradient
       inkscape:collect="always"
       xlink:href="#linearGradient3315"
       id="radialGradient3325"
       cx="33.117329"
       cy="47.336105"
       fx="33.117329"
       fy="47.336105"
       r="12.891029"
       gradientTransform="matrix(-9.3532162e-7,-0.7034277,1.1585053,-3.1680759e-7,-28.864703,68.670664)"
       gradientUnits="userSpaceOnUse" />
    <radialGradient
       inkscape:collect="always"
       xlink:href="#linearGradient3374"
       id="radialGradient3380"
       cx="25.625"
       cy="31.71875"
       fx="25.625"
       fy="31.71875"
       r="3.28125"
       gradientTransform="matrix(1,0,0,0.7478179,0,7.9989009)"
       gradientUnits="userSpaceOnUse" />
    <filter
       inkscape:collect="always"
       id="filter3426">
      <feGaussianBlur
         inkscape:collect="always"
         stdDeviation="0.21109141"
         id="feGaussianBlur3428" />
    </filter>
    <radialGradient
       inkscape:collect="always"
       xlink:href="#linearGradient3315"
       id="radialGradient3467"
       gradientUnits="userSpaceOnUse"
       gradientTransform="matrix(-9.3532162e-7,-0.7034277,1.1585053,-3.1680759e-7,-28.864703,68.670664)"
       cx="33.117329"
       cy="47.336105"
       fx="33.117329"
       fy="47.336105"
       r="12.891029" />
    <radialGradient
       inkscape:collect="always"
       xlink:href="#linearGradient5229"
       id="radialGradient3469"
       gradientUnits="userSpaceOnUse"
       gradientTransform="matrix(1,0,0,0.5594525,0,3.5275447)"
       cx="19.754795"
       cy="-0.820117"
       fx="19.754795"
       fy="-0.820117"
       r="10.827573" />
    <linearGradient
       inkscape:collect="always"
       xlink:href="#linearGradient5057"
       id="linearGradient3471"
       gradientUnits="userSpaceOnUse"
       x1="25.116856"
       y1="22.80932"
       x2="25.116856"
       y2="27.120842" />
    <linearGradient
       inkscape:collect="always"
       xlink:href="#linearGradient5535"
       id="linearGradient3473"
       gradientUnits="userSpaceOnUse"
       gradientTransform="matrix(1,0,0,0.9563586,7.5281332e-2,1.0816041)"
       x1="27.619066"
       y1="22.8125"
       x2="27.654226"
       y2="27.125" />
    <radialGradient
       inkscape:collect="always"
       xlink:href="#linearGradient3374"
       id="radialGradient3475"
       gradientUnits="userSpaceOnUse"
       gradientTransform="matrix(1,0,0,0.7478179,0,7.9989009)"
       cx="25.625"
       cy="31.71875"
       fx="25.625"
       fy="31.71875"
       r="3.28125" />
  </defs>
  <sodipodi:namedview
     id="base"
     pagecolor="#ffffff"
     bordercolor="#666666"
     borderopacity="1.0"
     inkscape:pageopacity="0.0"
     inkscape:pageshadow="2"
     inkscape:zoom="8.21875"
     inkscape:cx="33.727786"
     inkscape:cy="21.519193"
     inkscape:current-layer="layer1"
     showgrid="true"
     inkscape:grid-bbox="true"
     inkscape:document-units="px"
     inkscape:window-width="1278"
     inkscape:window-height="729"
     inkscape:window-x="0"
     inkscape:window-y="0" />
  <metadata
     id="metadata2388">
    <rdf:RDF>
      <cc:Work
         rdf:about="">
        <dc:format>image/svg+xml</dc:format>
        <dc:type
           rdf:resource="http://purl.org/dc/dcmitype/StillImage" />
      </cc:Work>
    </rdf:RDF>
  </metadata>
  <g
     id="layer1"
     inkscape:label="Background"
     inkscape:groupmode="layer"
     style="display:inline">
    <text
       xml:space="preserve"
       style="font-size:12px;font-style:normal;font-weight:bold;fill:#000000;fill-opacity:1;stroke:none;stroke-width:1px;stroke-linecap:butt;stroke-linejoin:miter;stroke-opacity:1;font-family:Zawgyi-One"
       x="14.428571"
       y="15.714286"
       id="text2387"><tspan
         sodipodi:role="line"
         id="tspan2389"
         x="14.428571"
         y="15.714286" /></text>
    <text
       xml:space="preserve"
       style="font-size:12px;font-style:normal;font-weight:normal;fill:#000000;fill-opacity:1;stroke:none;stroke-width:1px;stroke-linecap:butt;stroke-linejoin:miter;stroke-opacity:1;font-family:Zawgyi-One"
       x="17"
       y="16.714287"
       id="text2396"><tspan
         sodipodi:role="line"
         id="tspan2398"
         x="17"
         y="16.714287"
         style="font-style:normal;font-weight:bold" /></text>
    <text
       xml:space="preserve"
       style="font-size:40px;font-style:normal;font-weight:normal;fill:#000000;fill-opacity:1;stroke:none;stroke-width:1px;stroke-linecap:butt;stroke-linejoin:miter;stroke-opacity:1;font-family:Zawgyi-One"
       x="-29.428572"
       y="21.142857"
       id="text2412"><tspan
         sodipodi:role="line"
         id="tspan2414"
         x="-29.428572"
         y="21.142857" /></text>
    <text
       xml:space="preserve"
       style="font-size:20px;font-style:normal;font-weight:normal;fill:#000000;fill-opacity:1;stroke:none;stroke-width:1px;stroke-linecap:butt;stroke-linejoin:miter;stroke-opacity:1;font-family:Zawgyi-One"
       x="-18.714287"
       y="34.285713"
       id="text2416"><tspan
         sodipodi:role="line"
         id="tspan2418"
         x="-18.714287"
         y="34.285713" /></text>
    <g
       style="display:inline"
       id="g3443"
       transform="matrix(0.8372182,0,0,0.8372182,2.7115322,5.2792667)">
      <path
         transform="matrix(1.0924069,0,0,1.596875,-2.96678,-2.9023437)"
         d="M 48,16.25 A 21.8125,15 0 1 1 4.375,16.25 A 21.8125,15 0 1 1 48,16.25 z"
         sodipodi:ry="15"
         sodipodi:rx="21.8125"
         sodipodi:cy="16.25"
         sodipodi:cx="26.1875"
         id="path2674"
         style="fill:#ff0000;fill-opacity:1;stroke:none;stroke-width:0.35600001;stroke-linecap:butt;stroke-linejoin:miter;stroke-miterlimit:4;stroke-dasharray:none;stroke-opacity:1"
         sodipodi:type="arc" />
      <g
         transform="translate(0,-9.1254753e-2)"
         id="g3341"
         style="display:inline">
        <rect
           style="opacity:1;fill:#ffffff;fill-opacity:1;stroke:none;stroke-width:0.40000001;stroke-linecap:butt;stroke-linejoin:miter;stroke-miterlimit:4;stroke-dasharray:none;stroke-opacity:1"
           id="rect3327"
           width="2.676806"
           height="4.228137"
           x="17.490494"
           y="36.714828" />
        <rect
           y="36.714828"
           x="20.517105"
           height="4.228137"
           width="2.676806"
           id="rect3329"
           style="opacity:1;fill:#ffffff;fill-opacity:1;stroke:none;stroke-width:0.40000001;stroke-linecap:butt;stroke-linejoin:miter;stroke-miterlimit:4;stroke-dasharray:none;stroke-opacity:1" />
        <rect
           style="opacity:1;fill:#ffffff;fill-opacity:1;stroke:none;stroke-width:0.40000001;stroke-linecap:butt;stroke-linejoin:miter;stroke-miterlimit:4;stroke-dasharray:none;stroke-opacity:1"
           id="rect3333"
           width="2.0988593"
           height="4.228137"
           x="28.365011"
           y="36.714828" />
        <rect
           y="36.714828"
           x="30.790871"
           height="4.228137"
           width="2.676806"
           id="rect3335"
           style="opacity:1;fill:#ffffff;fill-opacity:1;stroke:none;stroke-width:0.40000001;stroke-linecap:butt;stroke-linejoin:miter;stroke-miterlimit:4;stroke-dasharray:none;stroke-opacity:1" />
        <rect
           y="36.714828"
           x="23.543715"
           height="4.228137"
           width="2.0988593"
           id="rect3337"
           style="opacity:1;fill:#ffffff;fill-opacity:1;stroke:none;stroke-width:0.40000001;stroke-linecap:butt;stroke-linejoin:miter;stroke-miterlimit:4;stroke-dasharray:none;stroke-opacity:1" />
        <rect
           style="opacity:1;fill:#ffffff;fill-opacity:1;stroke:none;stroke-width:0.40000001;stroke-linecap:butt;stroke-linejoin:miter;stroke-miterlimit:4;stroke-dasharray:none;stroke-opacity:1"
           id="rect3339"
           width="2.0988593"
           height="4.228137"
           x="25.939154"
           y="36.714828" />
      </g>
      <path
         id="path3302"
         d="M 12.71875,36.65625 C 12.717841,36.698318 12.71875,36.739038 12.71875,36.78125 C 12.71875,41.533068 18.505669,45.374999 25.625,45.375 C 32.744331,45.375 38.5,41.533066 38.5,36.78125 C 38.5,36.739038 38.500909,36.698318 38.5,36.65625 L 12.71875,36.65625 z"
         style="opacity:1;fill:url(#radialGradient3467);fill-opacity:1;stroke:none;stroke-width:0.40000001;stroke-linecap:butt;stroke-linejoin:miter;stroke-miterlimit:4;stroke-dasharray:none;stroke-opacity:1;display:inline" />
      <path
         id="text5552"
         d="M 32.137427,6.7373589 C 32.137415,7.4303804 31.823537,7.9765683 31.195793,8.3759228 C 30.635527,8.734182 29.943647,8.913308 29.120149,8.913301 C 28.850138,8.913308 28.580136,8.892752 28.310142,8.851635 C 27.75663,9.5564002 26.909498,10.60179 25.768745,11.98781 C 25.275985,12.563367 24.732606,13.3063 24.138605,14.216611 C 24.395103,14.122645 24.665105,14.07566 24.948613,14.075658 C 25.27936,14.07566 25.758614,14.172565 26.386376,14.366372 C 27.020874,14.554309 27.510253,14.648276 27.854513,14.648276 C 28.752262,14.642404 29.562269,14.433913 30.284535,14.022802 C 30.487026,13.893598 30.692903,13.764392 30.902165,13.635184 C 31.151907,13.494235 31.344283,13.435505 31.479295,13.458995 C 31.614285,13.48249 31.681786,13.661616 31.681797,13.996374 C 31.688536,14.742245 31.384783,15.361845 30.77054,15.855175 C 30.041523,16.442474 29.083015,16.744932 27.895014,16.762552 C 27.253751,16.774298 26.62937,16.703822 26.021872,16.551125 C 25.697864,16.457156 25.373861,16.366125 25.049864,16.27803 C 24.685356,16.17819 24.344478,16.128269 24.027229,16.128269 C 23.392721,16.122396 22.812216,16.304458 22.285714,16.674458 C 21.759207,17.044455 21.310329,17.229454 20.939077,17.229456 C 20.318071,17.229454 20.007568,16.888821 20.007568,16.207555 C 20.007568,15.385337 20.827699,14.011057 22.467965,12.084715 C 23.831474,10.481393 25.063359,9.242195 26.163624,8.3671128 C 25.380611,7.9853775 24.742731,7.794506 24.249981,7.7944976 C 23.41297,7.794506 22.704215,8.1645034 22.123713,8.904491 L 20.473323,7.8737824 C 21.290079,6.628718 22.592839,6.0061815 24.381608,6.0061714 C 25.630363,6.0061815 26.845373,6.2557834 28.02664,6.7549778 C 28.303384,6.5611787 28.698262,6.3409417 29.211276,6.0942663 C 29.812021,5.812373 30.233899,5.6714213 30.476912,5.6714108 C 30.578152,5.6714213 30.628777,5.7154687 30.628788,5.8035532 C 30.628777,5.9797531 30.358775,6.3996715 29.81878,7.0633099 C 29.920022,7.069192 30.014523,7.0721284 30.102284,7.0721194 C 30.615278,7.0721284 31.054031,6.9487957 31.418545,6.702121 C 31.789787,6.4495919 31.982163,6.3233228 31.995675,6.323313 C 32.090164,6.3233228 32.137415,6.4613379 32.137427,6.7373589"
         style="font-size:27.52370644px;font-style:normal;font-variant:normal;font-weight:bold;font-stretch:normal;opacity:0.55133081;fill:#8b281d;fill-opacity:1;stroke:#d5d5d5;stroke-width:0.40000001;stroke-linecap:butt;stroke-linejoin:miter;stroke-miterlimit:4;stroke-opacity:1;font-family:Arial Black;-inkscape-font-specification:'Arial Black, Bold'" />
      <path
         sodipodi:nodetypes="csssc"
         id="path3447"
         d="M 30.582368,10.125593 C 30.582368,14.638702 26.52003,14.038164 20.54321,14.038164 C 14.56639,14.038164 8.9272223,14.638702 8.9272223,10.125593 C 8.9272223,5.612484 13.777975,1.9496708 19.754795,1.9496708 C 25.731615,1.9496708 30.582368,5.612484 30.582368,10.125593 z"
         style="fill:url(#radialGradient3469);fill-opacity:1;stroke:none;stroke-width:0.35600001;stroke-linecap:butt;stroke-linejoin:miter;stroke-miterlimit:4;stroke-opacity:1;display:inline;filter:url(#filter5219)"
         transform="matrix(1.8857143,0,0,2.2798649,-11.619279,-3.7327521)" />
      <path
         id="path3298"
         d="M 22.375,23.71875 C 14.31828,23.731932 8.0844821,24.056988 8.03125,28.40625 C 7.907132,38.54718 15.919875,46.78125 25.625,46.78125 C 35.330125,46.78125 43.187499,38.547938 43.1875,28.40625 C 43.309174,23.983195 35.611376,23.718751 25.90625,23.71875 C 24.693109,23.71875 23.52596,23.716867 22.375,23.71875 z M 12.71875,36.65625 L 38.5,36.65625 C 38.500909,36.698318 38.5,36.739038 38.5,36.78125 C 38.5,41.533066 32.744331,45.375 25.625,45.375 C 18.505669,45.374999 12.71875,41.533068 12.71875,36.78125 C 12.71875,36.739038 12.717841,36.698318 12.71875,36.65625 z"
         style="fill:#fee4e4;fill-opacity:1;stroke:none;stroke-width:0.40000001;stroke-linecap:butt;stroke-linejoin:miter;stroke-miterlimit:4;stroke-opacity:1;display:inline" />
      <g
         id="g3430"
         style="display:inline">
        <path
           sodipodi:nodetypes="ccscc"
           id="path3388"
           d="M 49.341534,26.749157 L 53.643324,35.438773 C 53.643324,35.438773 45.369732,36.70773 41.942455,27.480461 C 41.383221,25.974835 43.620153,26.189924 43.620153,26.189924 L 49.341534,26.749157 z"
           style="fill:#282828;fill-opacity:0.89285715;fill-rule:evenodd;stroke:none;stroke-width:1px;stroke-linecap:butt;stroke-linejoin:miter;stroke-opacity:1;filter:url(#filter3426)" />
        <path
           style="fill:#ff0000;fill-opacity:1;fill-rule:evenodd;stroke:none;stroke-width:1px;stroke-linecap:butt;stroke-linejoin:miter;stroke-opacity:1"
           d="M 49.728696,26.361995 L 54.030486,35.051611 C 54.030486,35.051611 45.756894,36.320568 42.329617,27.093299 C 41.770383,25.587673 44.007315,25.802762 44.007315,25.802762 L 49.728696,26.361995 z"
           id="path3386"
           sodipodi:nodetypes="ccscc" />
      </g>
      <g
         transform="matrix(-1,0,0,1,51.253973,-0.1102491)"
         id="g3437"
         style="display:inline">
        <path
           sodipodi:nodetypes="ccscc"
           id="path3439"
           d="M 49.341534,26.749157 L 53.643324,35.438773 C 53.643324,35.438773 45.369732,36.70773 41.942455,27.480461 C 41.383221,25.974835 43.620153,26.189924 43.620153,26.189924 L 49.341534,26.749157 z"
           style="fill:#282828;fill-opacity:0.89285715;fill-rule:evenodd;stroke:none;stroke-width:1px;stroke-linecap:butt;stroke-linejoin:miter;stroke-opacity:1;filter:url(#filter3426)" />
        <path
           style="fill:#ff0000;fill-opacity:1;fill-rule:evenodd;stroke:none;stroke-width:1px;stroke-linecap:butt;stroke-linejoin:miter;stroke-opacity:1"
           d="M 49.728696,26.361995 L 54.030486,35.051611 C 54.030486,35.051611 45.756894,36.320568 42.329617,27.093299 C 41.770383,25.587673 44.007315,25.802762 44.007315,25.802762 L 49.728696,26.361995 z"
           id="path3441"
           sodipodi:nodetypes="ccscc" />
      </g>
      <rect
         rx="1.7946758"
         ry="2.155761"
         y="22.80932"
         x="-1.3700193"
         height="4.311522"
         width="52.973751"
         id="rect5368"
         style="fill:url(#linearGradient3471);fill-opacity:1;stroke:#888888;stroke-width:0.2;stroke-linecap:butt;stroke-linejoin:miter;stroke-miterlimit:4;stroke-dasharray:none;stroke-opacity:1;display:inline" />
      <path
         sodipodi:nodetypes="cccccccccccccccccccccccccccccccccccccsccc"
         id="rect5489"
         d="M 3.6377808,22.898533 L 6.6690308,27.02283 L 9.3252808,27.02283 L 6.2002808,22.898533 L 3.6377808,22.898533 z M 9.8252808,22.898533 L 12.887778,27.02283 L 15.606528,27.02283 L 12.481528,22.898533 L 9.8252808,22.898533 z M 16.137778,22.898533 L 19.169028,27.02283 L 22.012778,27.02283 L 18.887778,22.898533 L 16.137778,22.898533 z M 22.512778,22.898533 L 25.575278,27.02283 L 31.137778,27.02283 L 28.012778,22.898533 L 22.512778,22.898533 z M 31.637778,22.898533 L 34.700278,27.02283 L 37.544028,27.02283 L 34.450278,22.898533 L 31.637778,22.898533 z M 38.075278,22.898533 L 41.106528,27.02283 L 43.762778,27.02283 L 40.606528,22.898533 L 38.075278,22.898533 z M 44.262778,22.898533 L 47.294028,27.02283 L 49.887778,27.02283 C 49.933514,27.02283 49.967922,26.996768 50.012778,26.992944 L 46.919028,22.898533 L 44.262778,22.898533 z M 0.012781331,22.972983 C -0.66198815,23.131487 -1.2997192,24.02036 -1.2997192,24.960682 C -1.2997192,26.102853 -0.47386449,27.076062 0.51278136,27.02283 L 3.1065308,27.02283 L 0.012781331,22.972983 z"
         style="fill:url(#linearGradient3473);fill-opacity:1;stroke:none;stroke-width:0.35600001;stroke-linecap:butt;stroke-linejoin:miter;stroke-miterlimit:4;stroke-dasharray:none;stroke-opacity:1;display:inline" />
      <path
         id="path3363"
         d="M 23.375,28.5 C 21.6086,28.5 20.156249,29.9211 20.15625,31.6875 C 20.15625,33.4539 21.608601,34.875 23.375,34.875 C 24.273891,34.875 25.074789,34.503681 25.65625,33.90625 C 26.237711,34.503681 27.038609,34.875 27.9375,34.875 C 29.7039,34.875 31.15625,33.4539 31.15625,31.6875 C 31.15625,29.9211 29.703901,28.499999 27.9375,28.5 C 27.038609,28.5 26.237711,28.871319 25.65625,29.46875 C 25.074789,28.871319 24.273892,28.5 23.375,28.5 z"
         style="opacity:1;fill:#ffffff;fill-opacity:1;stroke:#323232;stroke-width:0.2;stroke-linecap:butt;stroke-linejoin:miter;stroke-miterlimit:4;stroke-dasharray:none;stroke-opacity:1;display:inline" />
      <path
         id="path3369"
         d="M 24.25,29.8125 C 23.2012,29.8125 22.34375,30.66995 22.34375,31.71875 C 22.34375,32.76755 23.201201,33.624998 24.25,33.625 C 24.797908,33.625 25.278136,33.371425 25.625,33 C 25.972491,33.380034 26.476109,33.624999 27.03125,33.625 C 28.08005,33.625 28.906251,32.76755 28.90625,31.71875 C 28.90625,30.66995 28.08005,29.812499 27.03125,29.8125 C 26.476109,29.8125 25.972491,30.057466 25.625,30.4375 C 25.278136,30.066075 24.797908,29.8125 24.25,29.8125 z"
         style="opacity:1;fill:url(#radialGradient3475);fill-opacity:1;stroke:none;stroke-width:0.2;stroke-linecap:butt;stroke-linejoin:miter;stroke-miterlimit:4;stroke-dasharray:none;stroke-opacity:1;display:inline" />
    </g>
  </g>
</svg>
