<?xml version="1.0" encoding="UTF-8" standalone="no"?>
<!-- Created with Inkscape (http://www.inkscape.org/) -->
<svg
   xmlns:dc="http://purl.org/dc/elements/1.1/"
   xmlns:cc="http://creativecommons.org/ns#"
   xmlns:rdf="http://www.w3.org/1999/02/22-rdf-syntax-ns#"
   xmlns:svg="http://www.w3.org/2000/svg"
   xmlns="http://www.w3.org/2000/svg"
   xmlns:xlink="http://www.w3.org/1999/xlink"
   xmlns:sodipodi="http://sodipodi.sourceforge.net/DTD/sodipodi-0.dtd"
   xmlns:inkscape="http://www.inkscape.org/namespaces/inkscape"
   width="48px"
   height="48px"
   id="svg2383"
   sodipodi:version="0.32"
   inkscape:version="0.46"
   sodipodi:docname="num_mm.svg"
   inkscape:output_extension="org.inkscape.output.svg.inkscape">
  <defs
     id="defs2385">
    <linearGradient
       id="linearGradient3165">
      <stop
         style="stop-color:#00aa00;stop-opacity:1;"
         offset="0"
         id="stop3167" />
      <stop
         style="stop-color:#86ff66;stop-opacity:1;"
         offset="1"
         id="stop3169" />
    </linearGradient>
    <inkscape:perspective
       sodipodi:type="inkscape:persp3d"
       inkscape:vp_x="0 : 24 : 1"
       inkscape:vp_y="6.1230318e-14 : 1000 : 0"
       inkscape:vp_z="48 : 24 : 1"
       inkscape:persp3d-origin="24 : 16 : 1"
       id="perspective2391" />
    <linearGradient
       inkscape:collect="always"
       xlink:href="#linearGradient3165"
       id="linearGradient3170"
       x1="9.4285707"
       y1="16.928572"
       x2="21.285713"
       y2="16.928572"
       gradientUnits="userSpaceOnUse" />
    <linearGradient
       inkscape:collect="always"
       xlink:href="#linearGradient3165"
       id="linearGradient3182"
       x1="4"
       y1="22.214285"
       x2="24.428572"
       y2="22.214285"
       gradientUnits="userSpaceOnUse" />
    <linearGradient
       inkscape:collect="always"
       xlink:href="#linearGradient3165"
       id="linearGradient3209"
       gradientUnits="userSpaceOnUse"
       x1="7.746789"
       y1="27.427807"
       x2="22.480242"
       y2="13.872649" />
    <linearGradient
       inkscape:collect="always"
       xlink:href="#linearGradient3165"
       id="linearGradient3213"
       gradientUnits="userSpaceOnUse"
       x1="8.4049778"
       y1="28.256899"
       x2="23.510868"
       y2="13.821767" />
    <linearGradient
       inkscape:collect="always"
       xlink:href="#linearGradient3165"
       id="linearGradient3220"
       gradientUnits="userSpaceOnUse"
       x1="8.4049778"
       y1="28.256899"
       x2="23.510868"
       y2="13.821767" />
    <linearGradient
       inkscape:collect="always"
       xlink:href="#linearGradient3165"
       id="linearGradient3226"
       gradientUnits="userSpaceOnUse"
       x1="8.4049778"
       y1="28.256899"
       x2="23.510868"
       y2="13.821767" />
    <linearGradient
       inkscape:collect="always"
       xlink:href="#linearGradient3165"
       id="linearGradient3231"
       gradientUnits="userSpaceOnUse"
       x1="8.4049778"
       y1="28.256899"
       x2="23.510868"
       y2="13.821767" />
    <linearGradient
       inkscape:collect="always"
       xlink:href="#linearGradient3165"
       id="linearGradient3234"
       gradientUnits="userSpaceOnUse"
       x1="8.4049778"
       y1="28.256899"
       x2="23.510868"
       y2="13.821767"
       gradientTransform="matrix(0.7783402,0,0,0.8510982,20.293591,5.3791756)" />
    <linearGradient
       inkscape:collect="always"
       xlink:href="#linearGradient3165"
       id="linearGradient3236"
       gradientUnits="userSpaceOnUse"
       x1="7.746789"
       y1="27.427807"
       x2="22.480242"
       y2="13.872649" />
    <linearGradient
       inkscape:collect="always"
       xlink:href="#linearGradient3165"
       id="linearGradient2404"
       gradientUnits="userSpaceOnUse"
       gradientTransform="matrix(1.4588402,0,0,1.4048982,49.195745,-11.087965)"
       x1="17.28125"
       y1="29.756697"
       x2="47.526787"
       y2="0.7566964" />
    <linearGradient
       inkscape:collect="always"
       xlink:href="#linearGradient3165"
       id="linearGradient3183"
       x1="10.56702"
       y1="37.847939"
       x2="55.943497"
       y2="-8.0981693"
       gradientUnits="userSpaceOnUse"
       gradientTransform="matrix(0.9452362,0,0,0.9452361,1.5728255,0.5656012)" />
    <linearGradient
       inkscape:collect="always"
       xlink:href="#linearGradient3165"
       id="linearGradient3871"
       gradientUnits="userSpaceOnUse"
       gradientTransform="matrix(0.9452362,0,0,0.9452361,21.00127,7.1711335)"
       x1="10.56702"
       y1="37.847939"
       x2="55.943497"
       y2="-8.0981693" />
    <linearGradient
       inkscape:collect="always"
       xlink:href="#linearGradient3165"
       id="linearGradient3222"
       x1="-55.213169"
       y1="18.063894"
       x2="3.6383934"
       y2="18.063894"
       gradientUnits="userSpaceOnUse" />
    <linearGradient
       inkscape:collect="always"
       xlink:href="#linearGradient3165"
       id="linearGradient2497"
       gradientUnits="userSpaceOnUse"
       gradientTransform="matrix(0.7914547,0,0,0.8014411,-11.56534,-0.8858535)"
       x1="-55.213169"
       y1="18.063894"
       x2="3.6383934"
       y2="18.063894" />
    <linearGradient
       inkscape:collect="always"
       xlink:href="#linearGradient3165"
       id="linearGradient3282"
       gradientUnits="userSpaceOnUse"
       gradientTransform="matrix(0.7914547,0,0,0.8014411,-11.56534,-0.8858535)"
       x1="-55.213169"
       y1="18.063894"
       x2="3.6383934"
       y2="18.063894" />
    <linearGradient
       inkscape:collect="always"
       xlink:href="#linearGradient3165"
       id="linearGradient3293"
       gradientUnits="userSpaceOnUse"
       gradientTransform="matrix(0.7914547,0,0,0.8014411,-11.56534,-0.8858535)"
       x1="-55.213169"
       y1="18.063894"
       x2="3.6383934"
       y2="18.063894" />
    <linearGradient
       inkscape:collect="always"
       xlink:href="#linearGradient3165"
       id="linearGradient3221"
       x1="1.7509891"
       y1="25.936605"
       x2="47.340916"
       y2="25.936605"
       gradientUnits="userSpaceOnUse" />
    <linearGradient
       inkscape:collect="always"
       xlink:href="#linearGradient3165"
       id="linearGradient3233"
       gradientUnits="userSpaceOnUse"
       x1="1.7509891"
       y1="25.936605"
       x2="47.340916"
       y2="25.936605" />
  </defs>
  <sodipodi:namedview
     id="base"
     pagecolor="#ffffff"
     bordercolor="#666666"
     borderopacity="1.0"
     inkscape:pageopacity="0.0"
     inkscape:pageshadow="2"
     inkscape:zoom="4"
     inkscape:cx="45.940303"
     inkscape:cy="10.912423"
     inkscape:current-layer="layer1"
     showgrid="true"
     inkscape:grid-bbox="true"
     inkscape:document-units="px"
     inkscape:window-width="1280"
     inkscape:window-height="734"
     inkscape:window-x="0"
     inkscape:window-y="0" />
  <metadata
     id="metadata2388">
    <rdf:RDF>
      <cc:Work
         rdf:about="">
        <dc:format>image/svg+xml</dc:format>
        <dc:type
           rdf:resource="http://purl.org/dc/dcmitype/StillImage" />
      </cc:Work>
    </rdf:RDF>
  </metadata>
  <g
     id="layer1"
     inkscape:label="Background"
     inkscape:groupmode="layer">
    <path
       sodipodi:type="arc"
       style="opacity:1;fill:#6b6b6b;fill-opacity:0.22110554;stroke:none;stroke-width:0.37799999;stroke-linejoin:round;stroke-miterlimit:4;stroke-dasharray:none;stroke-dashoffset:0;stroke-opacity:1"
       id="path2390"
       sodipodi:cx="25.357143"
       sodipodi:cy="45.357143"
       sodipodi:rx="15.642858"
       sodipodi:ry="2.3571429"
       d="M 41.000001,45.357143 A 15.642858,2.3571429 0 1 1 9.7142859,45.357143 A 15.642858,2.3571429 0 1 1 41.000001,45.357143 z"
       transform="matrix(1.2304582,0,0,1.4687983,-7.058047,-22.40621)" />
    <text
       xml:space="preserve"
       style="font-size:12px;font-style:normal;font-weight:bold;fill:#000000;fill-opacity:1;stroke:none;stroke-width:1px;stroke-linecap:butt;stroke-linejoin:miter;stroke-opacity:1;font-family:Zawgyi-One"
       x="14.428571"
       y="15.714286"
       id="text2387"><tspan
         sodipodi:role="line"
         id="tspan2389"
         x="14.428571"
         y="15.714286" /></text>
    <text
       xml:space="preserve"
       style="font-size:12px;font-style:normal;font-weight:normal;fill:#000000;fill-opacity:1;stroke:none;stroke-width:1px;stroke-linecap:butt;stroke-linejoin:miter;stroke-opacity:1;font-family:Zawgyi-One"
       x="17"
       y="16.714287"
       id="text2396"><tspan
         sodipodi:role="line"
         id="tspan2398"
         x="17"
         y="16.714287"
         style="font-style:normal;font-weight:bold" /></text>
    <text
       xml:space="preserve"
       style="font-size:40px;font-style:normal;font-weight:normal;fill:#000000;fill-opacity:1;stroke:none;stroke-width:1px;stroke-linecap:butt;stroke-linejoin:miter;stroke-opacity:1;font-family:Zawgyi-One"
       x="-29.428572"
       y="21.142857"
       id="text2412"><tspan
         sodipodi:role="line"
         id="tspan2414"
         x="-29.428572"
         y="21.142857" /></text>
    <text
       xml:space="preserve"
       style="font-size:20;font-style:normal;font-weight:normal;fill:#000000;fill-opacity:1;stroke:none;stroke-width:1px;stroke-linecap:butt;stroke-linejoin:miter;stroke-opacity:1;font-family:Zawgyi-One"
       x="-18.714287"
       y="34.285713"
       id="text2416"><tspan
         sodipodi:role="line"
         id="tspan2418"
         x="-18.714287"
         y="34.285713" /></text>
    <g
       id="g3229"
       transform="translate(-0.625,-0.125)">
      <path
         sodipodi:nodetypes="ccccssscsccscssccsccccsscccccccccccccccssscscccscssc"
         id="path3225"
         d="M 9.480756,28.973969 C 6.6639851,28.973969 4.6142863,27.750863 3.3316537,25.304644 L 2.7909351,24.274659 L 4.6394382,23.244673 C 5.9304529,25.587895 7.5442238,26.759502 9.480756,26.7595 C 10.889131,26.759502 12.0544,26.291717 12.976565,25.356144 C 13.907093,24.411995 14.372362,23.210346 14.372374,21.751193 C 14.372362,20.326388 13.902901,19.133323 12.96399,18.171993 C 12.033442,17.202102 10.872365,16.71715 9.480756,16.717138 C 7.5442238,16.71715 5.9304529,17.893049 4.6394382,20.24484 L 2.7909351,19.214853 C 4.5094961,16.107743 6.7394342,14.554182 9.480756,14.554168 C 11.526256,14.554182 13.207093,15.232256 14.523272,16.58839 C 15.847809,17.935966 16.510084,19.656898 16.510098,21.751193 C 16.510084,23.879836 15.852001,25.617936 14.535847,26.965497 C 13.228051,28.304479 11.543023,28.973969 9.480756,28.973969 M 25.174171,39.698696 C 23.061591,39.698686 21.34303,39.020612 20.018482,37.664475 C 18.702314,36.316903 18.04423,34.57022 18.04423,32.424422 L 18.04423,31.317187 L 20.181956,31.317187 L 20.181956,32.424422 C 20.181953,33.883564 20.655605,35.098088 21.602913,36.067996 C 22.558597,37.046475 23.749015,37.535718 25.174171,37.535726 C 26.56578,37.535718 27.726857,37.042184 28.657405,36.055121 C 29.596316,35.076629 30.065777,33.866397 30.065789,32.424422 L 30.065789,15.584153 L 32.153214,15.584153 L 32.153214,32.424422 C 32.1532,34.604552 31.516074,36.359819 30.241836,37.690225 C 28.975957,39.029196 27.286737,39.698686 25.174171,39.698696 M 40.867586,29.102718 C 39.978957,29.102717 39.07776,28.926762 38.163993,28.574849 L 42.263395,38.642961 L 40.276568,39.518449 L 34.479561,25.021398 L 35.753046,24.420906 L 36.359688,24.12941 L 36.541837,24.442031 C 37.849618,26.072845 39.291533,26.88825 40.867586,26.888248 C 42.259195,26.88825 43.420271,26.411882 44.35082,25.459143 C 45.28973,24.497827 45.759192,23.296178 45.759203,21.854192 C 45.759192,20.395054 45.293922,19.184822 44.363395,18.223492 C 43.441229,17.253601 42.275961,16.768649 40.867586,16.768637 C 38.99812,16.768649 37.384348,17.910216 36.026268,20.19334 L 34.228064,19.086106 L 34.768782,18.107618 C 36.034649,15.755831 38.067581,14.579931 40.867586,14.579917 C 42.980152,14.579931 44.669372,15.253714 45.935251,16.601265 C 47.209489,17.940257 47.846615,19.691232 47.846629,21.854192 C 47.846615,23.982834 47.196914,25.725226 45.897526,27.08137 C 44.606497,28.428935 42.929852,29.102717 40.867586,29.102718"
         style="font-size:26.05865669px;font-style:normal;font-variant:normal;font-weight:normal;font-stretch:normal;fill:#005812;fill-opacity:1;stroke:none;stroke-width:0.35600001;stroke-linecap:butt;stroke-linejoin:miter;stroke-miterlimit:4;stroke-dasharray:none;stroke-opacity:1;font-family:Zawgyi-One;-inkscape-font-specification:Zawgyi-One" />
      <path
         transform="scale(0.9882818,1.0118571)"
         sodipodi:nodetypes="ccccssscsccscssccsccccsscccccccccccccccssscscccscssc"
         id="text2440"
         d="M 8.5201323,27.762493 C 5.6699624,27.762493 3.5959601,26.553719 2.2981191,24.136166 L 1.7509891,23.11825 L 3.6214102,22.100334 C 4.9277326,24.416097 6.5606383,25.573975 8.5201323,25.573973 C 9.9452065,25.573975 11.124292,25.111672 12.057391,24.187062 C 12.998952,23.253977 13.469738,22.066409 13.46975,20.624355 C 13.469738,19.216246 12.994711,18.037161 12.044667,17.087096 C 11.103085,16.12857 9.9282413,15.649301 8.5201323,15.649289 C 6.5606383,15.649301 4.9277326,16.811421 3.6214102,19.135653 L 1.7509891,18.117736 C 3.4899273,15.047035 5.7463061,13.511679 8.5201323,13.511665 C 10.589886,13.511679 12.290653,14.181807 13.622438,15.52205 C 14.96268,16.853835 15.632808,18.554601 15.632822,20.624355 C 15.632808,22.728054 14.966922,24.445786 13.635162,25.777556 C 12.311859,27.100848 10.606851,27.762493 8.5201323,27.762493 M 24.399626,38.361546 C 22.261997,38.361536 20.523058,37.691408 19.182805,36.351162 C 17.851031,35.019381 17.185144,33.293166 17.185144,31.172513 L 17.185144,30.078253 L 19.348217,30.078253 L 19.348217,31.172513 C 19.348214,32.614556 19.827483,33.814848 20.786023,34.773391 C 21.753039,35.740404 22.957572,36.223914 24.399626,36.223922 C 25.807735,36.223914 26.982579,35.736163 27.924161,34.760667 C 28.874205,33.793641 29.349232,32.597591 29.349244,31.172513 L 29.349244,14.529581 L 31.46142,14.529581 L 31.46142,31.172513 C 31.461406,33.327096 30.816726,35.061794 29.527379,36.37661 C 28.24649,37.699891 26.537241,38.361536 24.399626,38.361546 M 40.27912,27.889733 C 39.379954,27.889732 38.468072,27.715839 37.54347,27.36805 L 41.691479,37.318182 L 39.681094,38.183411 L 33.815351,23.856239 L 35.103936,23.262783 L 35.717771,22.974703 L 35.90208,23.283661 C 37.225367,24.895365 38.684379,25.701215 40.27912,25.701213 C 41.687229,25.701215 42.862073,25.230429 43.803655,24.288854 C 44.753698,23.338803 45.228726,22.151235 45.228738,20.726147 C 45.228726,19.284107 44.75794,18.088057 43.816379,17.137992 C 42.883279,16.179466 41.704194,15.700197 40.27912,15.700185 C 38.387487,15.700197 36.754581,16.828387 35.380398,19.084757 L 33.560872,17.990497 L 34.108002,17.023476 C 35.388878,14.699247 37.445915,13.537127 40.27912,13.537113 C 42.416735,13.537127 44.125984,14.203014 45.406873,15.534774 C 46.69622,16.858076 47.3409,18.588532 47.340914,20.726147 C 47.3409,22.829845 46.683496,24.551819 45.368701,25.892072 C 44.062364,27.223846 42.365839,27.889732 40.27912,27.889733"
         style="font-size:26.05865669px;font-style:normal;font-variant:normal;font-weight:normal;font-stretch:normal;fill:url(#linearGradient3233);fill-opacity:1;stroke:#009200;stroke-width:0.35600001;stroke-linecap:butt;stroke-linejoin:miter;stroke-miterlimit:4;stroke-dasharray:none;stroke-opacity:1;font-family:Zawgyi-One;-inkscape-font-specification:Zawgyi-One" />
    </g>
  </g>
</svg>
