<?xml version="1.0" encoding="UTF-8" standalone="no"?>
<!-- Created with Inkscape (http://www.inkscape.org/) -->
<svg
   xmlns:dc="http://purl.org/dc/elements/1.1/"
   xmlns:cc="http://creativecommons.org/ns#"
   xmlns:rdf="http://www.w3.org/1999/02/22-rdf-syntax-ns#"
   xmlns:svg="http://www.w3.org/2000/svg"
   xmlns="http://www.w3.org/2000/svg"
   xmlns:xlink="http://www.w3.org/1999/xlink"
   xmlns:sodipodi="http://sodipodi.sourceforge.net/DTD/sodipodi-0.dtd"
   xmlns:inkscape="http://www.inkscape.org/namespaces/inkscape"
   width="48px"
   height="48px"
   id="svg2383"
   sodipodi:version="0.32"
   inkscape:version="0.46"
   sodipodi:docname="wz.svg"
   inkscape:output_extension="org.inkscape.output.svg.inkscape">
  <defs
     id="defs2385">
    <linearGradient
       id="linearGradient3165">
      <stop
         style="stop-color:#00aa00;stop-opacity:1;"
         offset="0"
         id="stop3167" />
      <stop
         style="stop-color:#86ff66;stop-opacity:1;"
         offset="1"
         id="stop3169" />
    </linearGradient>
    <inkscape:perspective
       sodipodi:type="inkscape:persp3d"
       inkscape:vp_x="0 : 24 : 1"
       inkscape:vp_y="6.1230318e-14 : 1000 : 0"
       inkscape:vp_z="48 : 24 : 1"
       inkscape:persp3d-origin="24 : 16 : 1"
       id="perspective2391" />
    <linearGradient
       inkscape:collect="always"
       xlink:href="#linearGradient3165"
       id="linearGradient3170"
       x1="9.4285707"
       y1="16.928572"
       x2="21.285713"
       y2="16.928572"
       gradientUnits="userSpaceOnUse" />
    <linearGradient
       inkscape:collect="always"
       xlink:href="#linearGradient3165"
       id="linearGradient3182"
       x1="4"
       y1="22.214285"
       x2="24.428572"
       y2="22.214285"
       gradientUnits="userSpaceOnUse" />
    <linearGradient
       inkscape:collect="always"
       xlink:href="#linearGradient3165"
       id="linearGradient3209"
       gradientUnits="userSpaceOnUse"
       x1="7.746789"
       y1="27.427807"
       x2="22.480242"
       y2="13.872649" />
    <linearGradient
       inkscape:collect="always"
       xlink:href="#linearGradient3165"
       id="linearGradient3213"
       gradientUnits="userSpaceOnUse"
       x1="8.4049778"
       y1="28.256899"
       x2="23.510868"
       y2="13.821767" />
    <linearGradient
       inkscape:collect="always"
       xlink:href="#linearGradient3165"
       id="linearGradient3220"
       gradientUnits="userSpaceOnUse"
       x1="8.4049778"
       y1="28.256899"
       x2="23.510868"
       y2="13.821767" />
    <linearGradient
       inkscape:collect="always"
       xlink:href="#linearGradient3165"
       id="linearGradient3226"
       gradientUnits="userSpaceOnUse"
       x1="8.4049778"
       y1="28.256899"
       x2="23.510868"
       y2="13.821767" />
    <linearGradient
       inkscape:collect="always"
       xlink:href="#linearGradient3165"
       id="linearGradient3231"
       gradientUnits="userSpaceOnUse"
       x1="8.4049778"
       y1="28.256899"
       x2="23.510868"
       y2="13.821767" />
    <linearGradient
       inkscape:collect="always"
       xlink:href="#linearGradient3165"
       id="linearGradient3234"
       gradientUnits="userSpaceOnUse"
       x1="8.4049778"
       y1="28.256899"
       x2="23.510868"
       y2="13.821767"
       gradientTransform="matrix(0.7783402,0,0,0.8510982,20.293591,5.3791756)" />
    <linearGradient
       inkscape:collect="always"
       xlink:href="#linearGradient3165"
       id="linearGradient3236"
       gradientUnits="userSpaceOnUse"
       x1="7.746789"
       y1="27.427807"
       x2="22.480242"
       y2="13.872649" />
    <linearGradient
       inkscape:collect="always"
       xlink:href="#linearGradient3165"
       id="linearGradient2404"
       gradientUnits="userSpaceOnUse"
       gradientTransform="matrix(1.4588402,0,0,1.4048982,49.195745,-11.087965)"
       x1="17.28125"
       y1="29.756697"
       x2="47.526787"
       y2="0.7566964" />
    <linearGradient
       inkscape:collect="always"
       xlink:href="#linearGradient3165"
       id="linearGradient3183"
       x1="10.56702"
       y1="37.847939"
       x2="55.943497"
       y2="-8.0981693"
       gradientUnits="userSpaceOnUse"
       gradientTransform="matrix(0.9452362,0,0,0.9452361,1.5728255,0.5656012)" />
    <linearGradient
       inkscape:collect="always"
       xlink:href="#linearGradient3165"
       id="linearGradient3871"
       gradientUnits="userSpaceOnUse"
       gradientTransform="matrix(0.9452362,0,0,0.9452361,21.00127,7.1711335)"
       x1="10.56702"
       y1="37.847939"
       x2="55.943497"
       y2="-8.0981693" />
    <linearGradient
       inkscape:collect="always"
       xlink:href="#linearGradient3165"
       id="linearGradient3222"
       x1="-55.213169"
       y1="18.063894"
       x2="3.6383934"
       y2="18.063894"
       gradientUnits="userSpaceOnUse" />
    <linearGradient
       inkscape:collect="always"
       xlink:href="#linearGradient3165"
       id="linearGradient2497"
       gradientUnits="userSpaceOnUse"
       gradientTransform="matrix(0.7914547,0,0,0.8014411,-11.56534,-0.8858535)"
       x1="-55.213169"
       y1="18.063894"
       x2="3.6383934"
       y2="18.063894" />
    <linearGradient
       inkscape:collect="always"
       xlink:href="#linearGradient3165"
       id="linearGradient3282"
       gradientUnits="userSpaceOnUse"
       gradientTransform="matrix(0.7914547,0,0,0.8014411,-11.56534,-0.8858535)"
       x1="-55.213169"
       y1="18.063894"
       x2="3.6383934"
       y2="18.063894" />
    <linearGradient
       inkscape:collect="always"
       xlink:href="#linearGradient3165"
       id="linearGradient3293"
       gradientUnits="userSpaceOnUse"
       gradientTransform="matrix(0.7914547,0,0,0.8014411,-11.56534,-0.8858535)"
       x1="-55.213169"
       y1="18.063894"
       x2="3.6383934"
       y2="18.063894" />
  </defs>
  <sodipodi:namedview
     id="base"
     pagecolor="#ffffff"
     bordercolor="#666666"
     borderopacity="1.0"
     inkscape:pageopacity="0.0"
     inkscape:pageshadow="2"
     inkscape:zoom="8"
     inkscape:cx="29.904795"
     inkscape:cy="22.46056"
     inkscape:current-layer="layer1"
     showgrid="true"
     inkscape:grid-bbox="true"
     inkscape:document-units="px"
     inkscape:window-width="1280"
     inkscape:window-height="734"
     inkscape:window-x="0"
     inkscape:window-y="0" />
  <metadata
     id="metadata2388">
    <rdf:RDF>
      <cc:Work
         rdf:about="">
        <dc:format>image/svg+xml</dc:format>
        <dc:type
           rdf:resource="http://purl.org/dc/dcmitype/StillImage" />
      </cc:Work>
    </rdf:RDF>
  </metadata>
  <g
     id="layer1"
     inkscape:label="Background"
     inkscape:groupmode="layer">
    <path
       sodipodi:type="arc"
       style="opacity:1;fill:#6b6b6b;fill-opacity:0.22110554;stroke:none;stroke-width:0.37799999;stroke-linejoin:round;stroke-miterlimit:4;stroke-dasharray:none;stroke-dashoffset:0;stroke-opacity:1"
       id="path2390"
       sodipodi:cx="25.357143"
       sodipodi:cy="45.357143"
       sodipodi:rx="15.642858"
       sodipodi:ry="2.3571429"
       d="M 41.000001,45.357143 A 15.642858,2.3571429 0 1 1 9.7142859,45.357143 A 15.642858,2.3571429 0 1 1 41.000001,45.357143 z"
       transform="matrix(1.2304582,0,0,1.4687983,-7.058047,-22.40621)" />
    <text
       xml:space="preserve"
       style="font-size:12px;font-style:normal;font-weight:bold;fill:#000000;fill-opacity:1;stroke:none;stroke-width:1px;stroke-linecap:butt;stroke-linejoin:miter;stroke-opacity:1;font-family:Zawgyi-One"
       x="14.428571"
       y="15.714286"
       id="text2387"><tspan
         sodipodi:role="line"
         id="tspan2389"
         x="14.428571"
         y="15.714286" /></text>
    <text
       xml:space="preserve"
       style="font-size:12px;font-style:normal;font-weight:normal;fill:#000000;fill-opacity:1;stroke:none;stroke-width:1px;stroke-linecap:butt;stroke-linejoin:miter;stroke-opacity:1;font-family:Zawgyi-One"
       x="17"
       y="16.714287"
       id="text2396"><tspan
         sodipodi:role="line"
         id="tspan2398"
         x="17"
         y="16.714287"
         style="font-style:normal;font-weight:bold" /></text>
    <text
       xml:space="preserve"
       style="font-size:40px;font-style:normal;font-weight:normal;fill:#000000;fill-opacity:1;stroke:none;stroke-width:1px;stroke-linecap:butt;stroke-linejoin:miter;stroke-opacity:1;font-family:Zawgyi-One"
       x="-29.428572"
       y="21.142857"
       id="text2412"><tspan
         sodipodi:role="line"
         id="tspan2414"
         x="-29.428572"
         y="21.142857" /></text>
    <text
       xml:space="preserve"
       style="font-size:20;font-style:normal;font-weight:normal;fill:#000000;fill-opacity:1;stroke:none;stroke-width:1px;stroke-linecap:butt;stroke-linejoin:miter;stroke-opacity:1;font-family:Zawgyi-One"
       x="-18.714287"
       y="34.285713"
       id="text2416"><tspan
         sodipodi:role="line"
         id="tspan2418"
         x="-18.714287"
         y="34.285713" /></text>
    <g
       id="g3289"
       transform="matrix(0.8854074,0,0,0.9023418,56.680292,18.855946)">
      <path
         sodipodi:nodetypes="csssssssccssssssscccssscsssssccssssccssssssccsssssccccccsccccsccsccsssssssccsssssssccsccsccssssccssssscscccscssccsccssc"
         id="path3284"
         d="M -47.40625,-6.28125 C -49.038614,-6.2812228 -50.413618,-5.7160537 -51.53125,-4.59375 C -52.648856,-3.4713948 -53.218733,-2.0904492 -53.21875,-0.4375 C -53.218734,1.215492 -52.670833,2.6136003 -51.5625,3.75 C -50.454141,4.886435 -49.082564,5.468766 -47.46875,5.46875 C -45.892015,5.468766 -44.559752,4.88336 -43.4375,3.71875 C -42.315237,2.5541746 -41.749997,1.1591408 -41.75,-0.4375 C -41.749996,-2.0904492 -42.267861,-3.4713949 -43.34375,-4.59375 C -44.419627,-5.7160536 -45.773866,-6.281223 -47.40625,-6.28125 z M -47.46875,-3.9375 C -46.457781,-3.937475 -45.638747,-3.6042993 -45.03125,-2.9375 C -44.42374,-2.2706526 -44.124995,-1.4518014 -44.125,-0.4375 C -44.124994,0.5862362 -44.458418,1.4067089 -45.09375,2.03125 C -45.729071,2.6558291 -46.551532,2.9687684 -47.5625,2.96875 C -48.527074,2.9687685 -49.328774,2.6746125 -49.96875,2.03125 C -50.608703,1.3879252 -50.937486,0.54866871 -50.9375,-0.4375 C -50.937486,-1.4705852 -50.608703,-2.3112944 -49.96875,-2.96875 C -49.328774,-3.6261574 -48.488973,-3.937475 -47.46875,-3.9375 z M -16.5,5.5 C -19.449883,5.499999 -21.785563,6.6726502 -23.137944,8.8033471 C -23.102068,8.9204194 -22.81448,9.4670896 -22.59375,10.03125 C -22.531879,10.189386 -22.562055,10.214577 -22.503791,10.397097 C -22.224752,11.27123 -22.0122,12.866846 -22.106694,13.349762 C -21.97154,12.761305 -21.768548,12.212779 -21.75,12.0625 C -20.785413,9.254338 -19.032038,7.8437641 -16.5,7.84375 C -14.960379,7.843764 -13.659153,8.3809263 -12.625,9.4375 C -11.590861,10.494098 -11.09376,11.815957 -11.09375,13.375 C -11.09376,14.990411 -11.587437,16.293484 -12.59375,17.3125 C -13.60008,18.331523 -14.90473,18.843754 -16.5,18.84375 C -17.037945,18.843753 -17.734617,18.722332 -18.625,18.46875 L -18.625,20.90625 C -17.669692,21.141047 -16.973021,21.281251 -16.5,21.28125 C -14.181291,21.28125 -12.285999,20.554189 -10.84375,19.09375 C -9.40152,17.633315 -8.6875124,15.722978 -8.6875,13.375 C -8.687512,11.08339 -9.4315592,9.1979842 -10.90625,7.71875 C -12.380961,6.239543 -14.246215,5.5000031 -16.5,5.5 z M -22.59375,10.03125 C -22.953151,9.0744516 -23.499956,8.2457655 -24.21875,7.5625 C -25.656366,6.195995 -27.569996,5.5312658 -30,5.53125 C -32.281621,5.531266 -34.173491,6.2707928 -35.625,7.75 C -37.076517,9.229235 -37.781249,11.114638 -37.78125,13.40625 C -37.78125,15.716659 -37.076519,17.60514 -35.625,19.09375 C -34.173489,20.582365 -32.28162,21.3125 -30,21.3125 C -29.081797,21.3125 -28.190196,21.166149 -27.28125,20.875 L -27.625,18.5625 C -28.645244,18.759733 -29.501169,18.843754 -30.1875,18.84375 C -31.745682,18.843753 -33.008806,18.340916 -33.96875,17.3125 C -34.928701,16.284093 -35.406252,14.984092 -35.40625,13.40625 C -35.406253,11.847205 -34.8906,10.547206 -33.875,9.5 C -32.859408,8.452817 -31.558182,7.906263 -30,7.90625 C -29.424967,7.906263 -28.728296,8.0370741 -27.875,8.28125 C -29.229138,9.398897 -29.852031,10.772072 -29.75,12.40625 C -29.712908,13.251528 -29.434925,14.048689 -28.90625,14.78125 C -28.359042,15.588957 -27.685349,16.059092 -26.90625,16.21875 L -25.96875,16.5 L -25.96875,16.90625 C -25.968762,17.366456 -25.815358,17.880307 -25.5,18.40625 C -25.184668,18.932199 -24.805081,19.283989 -24.40625,19.5 C -23.67355,19.866285 -23.088757,20.093583 -22.625,20.1875 L -21.46875,18.28125 L -22.84375,17.9375 C -23.224033,17.843585 -23.451215,17.666152 -23.5625,17.375 C -23.636714,17.243517 -23.687514,16.966354 -23.6875,16.5625 C -23.214496,16.431018 -22.856885,16.253585 -22.625,16 C -22.244746,14.788452 -22.062515,13.885413 -22.0625,13.3125 C -22.062507,12.082168 -22.234349,10.988048 -22.59375,10.03125 z M -47.375,5.53125 C -49.656622,5.531266 -51.542638,6.2707928 -53.03125,7.75 C -54.519865,9.229235 -55.25,11.114638 -55.25,13.40625 C -55.25,15.77301 -54.52329,17.664565 -53.0625,19.125 C -51.601714,20.58544 -49.71227,21.3125 -47.375,21.3125 C -45.130494,21.3125 -43.295278,20.582365 -41.84375,19.09375 C -40.39225,17.60514 -39.656265,15.716659 -39.65625,13.40625 C -39.656265,11.114638 -40.370274,9.2292348 -41.8125,7.75 C -43.254753,6.270793 -45.111944,5.5312658 -47.375,5.53125 z M -47.375,7.90625 C -45.835383,7.906263 -44.534156,8.4528173 -43.5,9.5 C -42.465866,10.547206 -41.968762,11.847205 -41.96875,13.40625 C -41.968764,14.984092 -42.465865,16.287167 -43.5,17.34375 C -44.534157,18.400341 -45.835382,18.937503 -47.375,18.9375 C -48.988832,18.937503 -50.309608,18.403415 -51.34375,17.375 C -52.3779,16.346594 -52.906253,15.040444 -52.90625,13.40625 C -52.906252,11.828421 -52.387175,10.506564 -51.34375,9.46875 C -50.300333,8.430959 -48.970282,7.906263 -47.375,7.90625 z M -26.3125,9.21875 C -25.051132,10.176734 -24.406263,11.42849 -24.40625,12.96875 C -24.406264,13.410176 -24.473192,13.923859 -24.59375,14.5625 C -25.391401,14.600074 -26.103196,14.422642 -26.6875,14 C -27.37385,13.558589 -27.706059,12.945177 -27.6875,12.15625 C -27.66896,11.019842 -27.202897,10.045247 -26.3125,9.21875 z M -29.625,21.3125 C -31.313013,21.3125 -32.699505,21.877671 -33.8125,23 C -34.925469,24.122328 -35.499985,25.540672 -35.5,27.25 C -35.499985,28.912356 -34.934744,30.327627 -33.8125,31.46875 C -32.69023,32.609853 -31.319865,33.187486 -29.6875,33.1875 C -28.945502,33.187488 -28.172631,33.056676 -27.375,32.8125 L -27.65625,30.59375 C -28.546628,30.762795 -29.239873,30.843739 -29.75,30.84375 C -30.779499,30.84374 -31.614661,30.484011 -32.25,29.8125 C -32.885316,29.140972 -33.218738,28.292492 -33.21875,27.25 C -33.218737,26.17932 -32.88189,25.288745 -32.21875,24.59375 C -31.555586,23.898748 -30.691599,23.562497 -29.625,23.5625 C -29.281821,23.562497 -28.898809,23.665302 -28.5,23.84375 C -29.065757,24.435437 -29.374991,25.251211 -29.375,26.3125 C -29.374991,28.153303 -28.397912,29.283641 -26.46875,29.6875 C -26.524393,31.302895 -25.639644,32.21516 -23.8125,32.46875 L -23.09375,30.625 C -23.399817,30.681341 -23.60745,30.718741 -23.71875,30.71875 C -24.330887,30.718741 -24.602019,30.38249 -24.5,29.6875 C -23.97133,29.537221 -23.687497,28.708977 -23.6875,27.1875 C -23.687497,25.421821 -24.244676,24.003477 -25.34375,22.9375 C -26.442815,21.87152 -27.872044,21.3125 -29.625,21.3125 z M -27.375,24.4375 C -26.289836,25.047969 -25.749994,26.047496 -25.75,27.4375 C -25.749994,27.568981 -25.77882,27.765196 -25.84375,28 L -26.03125,28 C -26.522811,27.999993 -26.938075,27.825636 -27.28125,27.46875 C -27.624412,27.111853 -27.812492,26.654014 -27.8125,26.15625 C -27.812492,25.461246 -27.662514,24.897698 -27.375,24.4375 z"
         style="font-size:40px;font-style:normal;font-weight:normal;fill:#005812;fill-opacity:1;stroke:none;stroke-width:0.39821613;stroke-linecap:butt;stroke-linejoin:miter;stroke-miterlimit:4;stroke-opacity:1;font-family:Zawgyi-One"
         transform="translate(-4.0936959,-9.2937452)" />
      <path
         transform="translate(-5.1543561,-10.354406)"
         d="M -47.40625,-6.28125 C -49.038614,-6.2812228 -50.413618,-5.7160537 -51.53125,-4.59375 C -52.648856,-3.4713948 -53.218733,-2.0904492 -53.21875,-0.4375 C -53.218734,1.215492 -52.670833,2.6136003 -51.5625,3.75 C -50.454141,4.886435 -49.082564,5.468766 -47.46875,5.46875 C -45.892015,5.468766 -44.559752,4.88336 -43.4375,3.71875 C -42.315237,2.5541746 -41.749997,1.1591408 -41.75,-0.4375 C -41.749996,-2.0904492 -42.267861,-3.4713949 -43.34375,-4.59375 C -44.419627,-5.7160536 -45.773866,-6.281223 -47.40625,-6.28125 z M -47.46875,-3.9375 C -46.457781,-3.937475 -45.638747,-3.6042993 -45.03125,-2.9375 C -44.42374,-2.2706526 -44.124995,-1.4518014 -44.125,-0.4375 C -44.124994,0.5862362 -44.458418,1.4067089 -45.09375,2.03125 C -45.729071,2.6558291 -46.551532,2.9687684 -47.5625,2.96875 C -48.527074,2.9687685 -49.328774,2.6746125 -49.96875,2.03125 C -50.608703,1.3879252 -50.937486,0.54866871 -50.9375,-0.4375 C -50.937486,-1.4705852 -50.608703,-2.3112944 -49.96875,-2.96875 C -49.328774,-3.6261574 -48.488973,-3.937475 -47.46875,-3.9375 z M -16.5,5.5 C -19.449883,5.499999 -21.741369,6.6505531 -23.09375,8.78125 C -23.057874,8.8983223 -22.81448,9.4670896 -22.59375,10.03125 C -22.531879,10.189386 -22.495764,10.19248 -22.4375,10.375 C -22.158461,11.249133 -21.968006,12.579584 -22.0625,13.0625 C -21.927346,12.474043 -21.768548,12.212779 -21.75,12.0625 C -20.785413,9.254338 -19.032038,7.8437641 -16.5,7.84375 C -14.960379,7.843764 -13.659153,8.3809263 -12.625,9.4375 C -11.590861,10.494098 -11.09376,11.815957 -11.09375,13.375 C -11.09376,14.990411 -11.587437,16.293484 -12.59375,17.3125 C -13.60008,18.331523 -14.90473,18.843754 -16.5,18.84375 C -17.037945,18.843753 -17.734617,18.722332 -18.625,18.46875 L -18.625,20.90625 C -17.669692,21.141047 -16.973021,21.281251 -16.5,21.28125 C -14.181291,21.28125 -12.285999,20.554189 -10.84375,19.09375 C -9.40152,17.633315 -8.6875124,15.722978 -8.6875,13.375 C -8.687512,11.08339 -9.4315592,9.1979842 -10.90625,7.71875 C -12.380961,6.239543 -14.246215,5.5000031 -16.5,5.5 z M -22.59375,10.03125 C -22.953151,9.0744516 -23.499956,8.2457655 -24.21875,7.5625 C -25.656366,6.195995 -27.569996,5.5312658 -30,5.53125 C -32.281621,5.531266 -34.173491,6.2707928 -35.625,7.75 C -37.076517,9.229235 -37.781249,11.114638 -37.78125,13.40625 C -37.78125,15.716659 -37.076519,17.60514 -35.625,19.09375 C -34.173489,20.582365 -32.28162,21.3125 -30,21.3125 C -29.081797,21.3125 -28.190196,21.166149 -27.28125,20.875 L -27.625,18.5625 C -28.645244,18.759733 -29.501169,18.843754 -30.1875,18.84375 C -31.745682,18.843753 -33.008806,18.340916 -33.96875,17.3125 C -34.928701,16.284093 -35.406252,14.984092 -35.40625,13.40625 C -35.406253,11.847205 -34.8906,10.547206 -33.875,9.5 C -32.859408,8.452817 -31.558182,7.906263 -30,7.90625 C -29.424967,7.906263 -28.728296,8.0370741 -27.875,8.28125 C -29.229138,9.398897 -29.852031,10.772072 -29.75,12.40625 C -29.712908,13.251528 -29.434925,14.048689 -28.90625,14.78125 C -28.359042,15.588957 -27.685349,16.059092 -26.90625,16.21875 L -25.96875,16.5 L -25.96875,16.90625 C -25.968762,17.366456 -25.815358,17.880307 -25.5,18.40625 C -25.184668,18.932199 -24.805081,19.283989 -24.40625,19.5 C -23.67355,19.866285 -23.088757,20.093583 -22.625,20.1875 L -21.46875,18.28125 L -22.84375,17.9375 C -23.224033,17.843585 -23.451215,17.666152 -23.5625,17.375 C -23.636714,17.243517 -23.687514,16.966354 -23.6875,16.5625 C -23.214496,16.431018 -22.856885,16.253585 -22.625,16 C -22.244746,14.788452 -22.062515,13.885413 -22.0625,13.3125 C -22.062507,12.082168 -22.234349,10.988048 -22.59375,10.03125 z M -47.375,5.53125 C -49.656622,5.531266 -51.542638,6.2707928 -53.03125,7.75 C -54.519865,9.229235 -55.25,11.114638 -55.25,13.40625 C -55.25,15.77301 -54.52329,17.664565 -53.0625,19.125 C -51.601714,20.58544 -49.71227,21.3125 -47.375,21.3125 C -45.130494,21.3125 -43.295278,20.582365 -41.84375,19.09375 C -40.39225,17.60514 -39.656265,15.716659 -39.65625,13.40625 C -39.656265,11.114638 -40.370274,9.2292348 -41.8125,7.75 C -43.254753,6.270793 -45.111944,5.5312658 -47.375,5.53125 z M -47.375,7.90625 C -45.835383,7.906263 -44.534156,8.4528173 -43.5,9.5 C -42.465866,10.547206 -41.968762,11.847205 -41.96875,13.40625 C -41.968764,14.984092 -42.465865,16.287167 -43.5,17.34375 C -44.534157,18.400341 -45.835382,18.937503 -47.375,18.9375 C -48.988832,18.937503 -50.309608,18.403415 -51.34375,17.375 C -52.3779,16.346594 -52.906253,15.040444 -52.90625,13.40625 C -52.906252,11.828421 -52.387175,10.506564 -51.34375,9.46875 C -50.300333,8.430959 -48.970282,7.906263 -47.375,7.90625 z M -26.3125,9.21875 C -25.051132,10.176734 -24.406263,11.42849 -24.40625,12.96875 C -24.406264,13.410176 -24.473192,13.923859 -24.59375,14.5625 C -25.391401,14.600074 -26.103196,14.422642 -26.6875,14 C -27.37385,13.558589 -27.706059,12.945177 -27.6875,12.15625 C -27.66896,11.019842 -27.202897,10.045247 -26.3125,9.21875 z M -29.625,21.3125 C -31.313013,21.3125 -32.699505,21.877671 -33.8125,23 C -34.925469,24.122328 -35.499985,25.540672 -35.5,27.25 C -35.499985,28.912356 -34.934744,30.327627 -33.8125,31.46875 C -32.69023,32.609853 -31.319865,33.187486 -29.6875,33.1875 C -28.945502,33.187488 -28.172631,33.056676 -27.375,32.8125 L -27.65625,30.59375 C -28.546628,30.762795 -29.239873,30.843739 -29.75,30.84375 C -30.779499,30.84374 -31.614661,30.484011 -32.25,29.8125 C -32.885316,29.140972 -33.218738,28.292492 -33.21875,27.25 C -33.218737,26.17932 -32.88189,25.288745 -32.21875,24.59375 C -31.555586,23.898748 -30.691599,23.562497 -29.625,23.5625 C -29.281821,23.562497 -28.898809,23.665302 -28.5,23.84375 C -29.065757,24.435437 -29.374991,25.251211 -29.375,26.3125 C -29.374991,28.153303 -28.397912,29.283641 -26.46875,29.6875 C -26.524393,31.302895 -25.639644,32.21516 -23.8125,32.46875 L -23.09375,30.625 C -23.399817,30.681341 -23.60745,30.718741 -23.71875,30.71875 C -24.330887,30.718741 -24.602019,30.38249 -24.5,29.6875 C -23.97133,29.537221 -23.687497,28.708977 -23.6875,27.1875 C -23.687497,25.421821 -24.244676,24.003477 -25.34375,22.9375 C -26.442815,21.87152 -27.872044,21.3125 -29.625,21.3125 z M -27.375,24.4375 C -26.289836,25.047969 -25.749994,26.047496 -25.75,27.4375 C -25.749994,27.568981 -25.77882,27.765196 -25.84375,28 L -26.03125,28 C -26.522811,27.999993 -26.938075,27.825636 -27.28125,27.46875 C -27.624412,27.111853 -27.812492,26.654014 -27.8125,26.15625 C -27.812492,25.461246 -27.662514,24.897698 -27.375,24.4375 z"
         inkscape:href="#text2420"
         id="path3271"
         style="font-size:40px;font-style:normal;font-weight:normal;fill:url(#linearGradient3293);fill-opacity:1;stroke:#009200;stroke-width:0.39821613;stroke-linecap:butt;stroke-linejoin:miter;stroke-miterlimit:4;stroke-dasharray:none;stroke-opacity:1;font-family:Zawgyi-One"
         xlink:href="#text2420"
         inkscape:original="M -47.40625 -6.28125 C -49.038614 -6.2812228 -50.413618 -5.7160537 -51.53125 -4.59375 C -52.648856 -3.4713948 -53.218733 -2.0904492 -53.21875 -0.4375 C -53.218734 1.215492 -52.670833 2.6136003 -51.5625 3.75 C -50.454141 4.886435 -49.082564 5.468766 -47.46875 5.46875 C -45.892015 5.468766 -44.559752 4.88336 -43.4375 3.71875 C -42.315237 2.5541746 -41.749997 1.1591408 -41.75 -0.4375 C -41.749996 -2.0904492 -42.267861 -3.4713949 -43.34375 -4.59375 C -44.419627 -5.7160536 -45.773866 -6.281223 -47.40625 -6.28125 z M -47.46875 -3.9375 C -46.457781 -3.937475 -45.638747 -3.6042993 -45.03125 -2.9375 C -44.42374 -2.2706526 -44.124995 -1.4518014 -44.125 -0.4375 C -44.124994 0.5862362 -44.458418 1.4067089 -45.09375 2.03125 C -45.729071 2.6558291 -46.551532 2.9687684 -47.5625 2.96875 C -48.527074 2.9687685 -49.328774 2.6746125 -49.96875 2.03125 C -50.608703 1.3879252 -50.937486 0.54866871 -50.9375 -0.4375 C -50.937486 -1.4705852 -50.608703 -2.3112944 -49.96875 -2.96875 C -49.328774 -3.6261574 -48.488973 -3.937475 -47.46875 -3.9375 z M -16.5 5.5 C -19.449883 5.499999 -21.741369 6.6505531 -23.09375 8.78125 C -23.057874 8.8983223 -22.81448 9.4670896 -22.59375 10.03125 C -22.531879 10.189386 -22.495764 10.19248 -22.4375 10.375 C -22.158461 11.249133 -21.968006 12.579584 -22.0625 13.0625 C -21.927346 12.474043 -21.768548 12.212779 -21.75 12.0625 C -20.785413 9.254338 -19.032038 7.8437641 -16.5 7.84375 C -14.960379 7.843764 -13.659153 8.3809263 -12.625 9.4375 C -11.590861 10.494098 -11.09376 11.815957 -11.09375 13.375 C -11.09376 14.990411 -11.587437 16.293484 -12.59375 17.3125 C -13.60008 18.331523 -14.90473 18.843754 -16.5 18.84375 C -17.037945 18.843753 -17.734617 18.722332 -18.625 18.46875 L -18.625 20.90625 C -17.669692 21.141047 -16.973021 21.281251 -16.5 21.28125 C -14.181291 21.28125 -12.285999 20.554189 -10.84375 19.09375 C -9.40152 17.633315 -8.6875124 15.722978 -8.6875 13.375 C -8.687512 11.08339 -9.4315592 9.1979842 -10.90625 7.71875 C -12.380961 6.239543 -14.246215 5.5000031 -16.5 5.5 z M -22.59375 10.03125 C -22.953151 9.0744516 -23.499956 8.2457655 -24.21875 7.5625 C -25.656366 6.195995 -27.569996 5.5312658 -30 5.53125 C -32.281621 5.531266 -34.173491 6.2707928 -35.625 7.75 C -37.076517 9.229235 -37.781249 11.114638 -37.78125 13.40625 C -37.78125 15.716659 -37.076519 17.60514 -35.625 19.09375 C -34.173489 20.582365 -32.28162 21.3125 -30 21.3125 C -29.081797 21.3125 -28.190196 21.166149 -27.28125 20.875 L -27.625 18.5625 C -28.645244 18.759733 -29.501169 18.843754 -30.1875 18.84375 C -31.745682 18.843753 -33.008806 18.340916 -33.96875 17.3125 C -34.928701 16.284093 -35.406252 14.984092 -35.40625 13.40625 C -35.406253 11.847205 -34.8906 10.547206 -33.875 9.5 C -32.859408 8.452817 -31.558182 7.906263 -30 7.90625 C -29.424967 7.906263 -28.728296 8.0370741 -27.875 8.28125 C -29.229138 9.398897 -29.852031 10.772072 -29.75 12.40625 C -29.712908 13.251528 -29.434925 14.048689 -28.90625 14.78125 C -28.359042 15.588957 -27.685349 16.059092 -26.90625 16.21875 L -25.96875 16.5 L -25.96875 16.90625 C -25.968762 17.366456 -25.815358 17.880307 -25.5 18.40625 C -25.184668 18.932199 -24.805081 19.283989 -24.40625 19.5 C -23.67355 19.866285 -23.088757 20.093583 -22.625 20.1875 L -21.46875 18.28125 L -22.84375 17.9375 C -23.224033 17.843585 -23.451215 17.666152 -23.5625 17.375 C -23.636714 17.243517 -23.687514 16.966354 -23.6875 16.5625 C -23.214496 16.431018 -22.856885 16.253585 -22.625 16 C -22.244746 14.788452 -22.062515 13.885413 -22.0625 13.3125 C -22.062507 12.082168 -22.234349 10.988048 -22.59375 10.03125 z M -47.375 5.53125 C -49.656622 5.531266 -51.542638 6.2707928 -53.03125 7.75 C -54.519865 9.229235 -55.25 11.114638 -55.25 13.40625 C -55.25 15.77301 -54.52329 17.664565 -53.0625 19.125 C -51.601714 20.58544 -49.71227 21.3125 -47.375 21.3125 C -45.130494 21.3125 -43.295278 20.582365 -41.84375 19.09375 C -40.39225 17.60514 -39.656265 15.716659 -39.65625 13.40625 C -39.656265 11.114638 -40.370274 9.2292348 -41.8125 7.75 C -43.254753 6.270793 -45.111944 5.5312658 -47.375 5.53125 z M -47.375 7.90625 C -45.835383 7.906263 -44.534156 8.4528173 -43.5 9.5 C -42.465866 10.547206 -41.968762 11.847205 -41.96875 13.40625 C -41.968764 14.984092 -42.465865 16.287167 -43.5 17.34375 C -44.534157 18.400341 -45.835382 18.937503 -47.375 18.9375 C -48.988832 18.937503 -50.309608 18.403415 -51.34375 17.375 C -52.3779 16.346594 -52.906253 15.040444 -52.90625 13.40625 C -52.906252 11.828421 -52.387175 10.506564 -51.34375 9.46875 C -50.300333 8.430959 -48.970282 7.906263 -47.375 7.90625 z M -26.3125 9.21875 C -25.051132 10.176734 -24.406263 11.42849 -24.40625 12.96875 C -24.406264 13.410176 -24.473192 13.923859 -24.59375 14.5625 C -25.391401 14.600074 -26.103196 14.422642 -26.6875 14 C -27.37385 13.558589 -27.706059 12.945177 -27.6875 12.15625 C -27.66896 11.019842 -27.202897 10.045247 -26.3125 9.21875 z M -29.625 21.3125 C -31.313013 21.3125 -32.699505 21.877671 -33.8125 23 C -34.925469 24.122328 -35.499985 25.540672 -35.5 27.25 C -35.499985 28.912356 -34.934744 30.327627 -33.8125 31.46875 C -32.69023 32.609853 -31.319865 33.187486 -29.6875 33.1875 C -28.945502 33.187488 -28.172631 33.056676 -27.375 32.8125 L -27.65625 30.59375 C -28.546628 30.762795 -29.239873 30.843739 -29.75 30.84375 C -30.779499 30.84374 -31.614661 30.484011 -32.25 29.8125 C -32.885316 29.140972 -33.218738 28.292492 -33.21875 27.25 C -33.218737 26.17932 -32.88189 25.288745 -32.21875 24.59375 C -31.555586 23.898748 -30.691599 23.562497 -29.625 23.5625 C -29.281821 23.562497 -28.898809 23.665302 -28.5 23.84375 C -29.065757 24.435437 -29.374991 25.251211 -29.375 26.3125 C -29.374991 28.153303 -28.397912 29.283641 -26.46875 29.6875 C -26.524393 31.302895 -25.639644 32.21516 -23.8125 32.46875 L -23.09375 30.625 C -23.399817 30.681341 -23.60745 30.718741 -23.71875 30.71875 C -24.330887 30.718741 -24.602019 30.38249 -24.5 29.6875 C -23.97133 29.537221 -23.687497 28.708977 -23.6875 27.1875 C -23.687497 25.421821 -24.244676 24.003477 -25.34375 22.9375 C -26.442815 21.87152 -27.872044 21.3125 -29.625 21.3125 z M -27.375 24.4375 C -26.289836 25.047969 -25.749994 26.047496 -25.75 27.4375 C -25.749994 27.568981 -25.77882 27.765196 -25.84375 28 L -26.03125 28 C -26.522811 27.999993 -26.938075 27.825636 -27.28125 27.46875 C -27.624412 27.111853 -27.812492 26.654014 -27.8125 26.15625 C -27.812492 25.461246 -27.662514 24.897698 -27.375 24.4375 z "
         inkscape:radius="0"
         sodipodi:type="inkscape:offset" />
    </g>
  </g>
</svg>
