<?xml version="1.0" encoding="UTF-8" standalone="no"?>
<!-- Created with Inkscape (http://www.inkscape.org/) -->
<svg
   xmlns:dc="http://purl.org/dc/elements/1.1/"
   xmlns:cc="http://creativecommons.org/ns#"
   xmlns:rdf="http://www.w3.org/1999/02/22-rdf-syntax-ns#"
   xmlns:svg="http://www.w3.org/2000/svg"
   xmlns="http://www.w3.org/2000/svg"
   xmlns:xlink="http://www.w3.org/1999/xlink"
   xmlns:sodipodi="http://sodipodi.sourceforge.net/DTD/sodipodi-0.dtd"
   xmlns:inkscape="http://www.inkscape.org/namespaces/inkscape"
   width="48px"
   height="48px"
   id="svg2383"
   sodipodi:version="0.32"
   inkscape:version="0.46"
   sodipodi:docname="wz.svg"
   inkscape:output_extension="org.inkscape.output.svg.inkscape">
  <defs
     id="defs2385">
    <linearGradient
       id="linearGradient3165">
      <stop
         style="stop-color:#008d00;stop-opacity:1;"
         offset="0"
         id="stop3167" />
      <stop
         style="stop-color:#86ff66;stop-opacity:1;"
         offset="1"
         id="stop3169" />
    </linearGradient>
    <inkscape:perspective
       sodipodi:type="inkscape:persp3d"
       inkscape:vp_x="0 : 24 : 1"
       inkscape:vp_y="6.1230318e-14 : 1000 : 0"
       inkscape:vp_z="48 : 24 : 1"
       inkscape:persp3d-origin="24 : 16 : 1"
       id="perspective2391" />
    <linearGradient
       inkscape:collect="always"
       xlink:href="#linearGradient3165"
       id="linearGradient3170"
       x1="9.4285707"
       y1="16.928572"
       x2="21.285713"
       y2="16.928572"
       gradientUnits="userSpaceOnUse" />
    <linearGradient
       inkscape:collect="always"
       xlink:href="#linearGradient3165"
       id="linearGradient3182"
       x1="4"
       y1="22.214285"
       x2="24.428572"
       y2="22.214285"
       gradientUnits="userSpaceOnUse" />
    <linearGradient
       inkscape:collect="always"
       xlink:href="#linearGradient3165"
       id="linearGradient3209"
       gradientUnits="userSpaceOnUse"
       x1="7.746789"
       y1="27.427807"
       x2="22.480242"
       y2="13.872649" />
    <linearGradient
       inkscape:collect="always"
       xlink:href="#linearGradient3165"
       id="linearGradient3213"
       gradientUnits="userSpaceOnUse"
       x1="8.4049778"
       y1="28.256899"
       x2="23.510868"
       y2="13.821767" />
    <linearGradient
       inkscape:collect="always"
       xlink:href="#linearGradient3165"
       id="linearGradient3220"
       gradientUnits="userSpaceOnUse"
       x1="8.4049778"
       y1="28.256899"
       x2="23.510868"
       y2="13.821767" />
    <linearGradient
       inkscape:collect="always"
       xlink:href="#linearGradient3165"
       id="linearGradient3226"
       gradientUnits="userSpaceOnUse"
       x1="8.4049778"
       y1="28.256899"
       x2="23.510868"
       y2="13.821767" />
    <linearGradient
       inkscape:collect="always"
       xlink:href="#linearGradient3165"
       id="linearGradient3231"
       gradientUnits="userSpaceOnUse"
       x1="8.4049778"
       y1="28.256899"
       x2="23.510868"
       y2="13.821767" />
    <linearGradient
       inkscape:collect="always"
       xlink:href="#linearGradient3165"
       id="linearGradient3234"
       gradientUnits="userSpaceOnUse"
       x1="8.4049778"
       y1="28.256899"
       x2="23.510868"
       y2="13.821767"
       gradientTransform="matrix(0.7783402,0,0,0.8510982,20.293591,5.3791756)" />
    <linearGradient
       inkscape:collect="always"
       xlink:href="#linearGradient3165"
       id="linearGradient3236"
       gradientUnits="userSpaceOnUse"
       x1="7.746789"
       y1="27.427807"
       x2="22.480242"
       y2="13.872649" />
    <linearGradient
       inkscape:collect="always"
       xlink:href="#linearGradient3165"
       id="linearGradient2404"
       gradientUnits="userSpaceOnUse"
       gradientTransform="matrix(1.4588402,0,0,1.4048982,49.195745,-11.087965)"
       x1="17.28125"
       y1="29.756697"
       x2="47.526787"
       y2="0.7566964" />
    <linearGradient
       inkscape:collect="always"
       xlink:href="#linearGradient3165"
       id="linearGradient3183"
       x1="10.56702"
       y1="37.847939"
       x2="55.943497"
       y2="-8.0981693"
       gradientUnits="userSpaceOnUse"
       gradientTransform="matrix(0.9452362,0,0,0.9452361,1.5728255,0.5656012)" />
    <linearGradient
       inkscape:collect="always"
       xlink:href="#linearGradient3165"
       id="linearGradient3871"
       gradientUnits="userSpaceOnUse"
       gradientTransform="matrix(0.9452362,0,0,0.9452361,21.00127,7.1711335)"
       x1="10.56702"
       y1="37.847939"
       x2="55.943497"
       y2="-8.0981693" />
    <linearGradient
       inkscape:collect="always"
       xlink:href="#linearGradient3165"
       id="linearGradient3222"
       x1="-55.213169"
       y1="18.063894"
       x2="3.6383934"
       y2="18.063894"
       gradientUnits="userSpaceOnUse" />
    <linearGradient
       inkscape:collect="always"
       xlink:href="#linearGradient3165"
       id="linearGradient3320"
       gradientUnits="userSpaceOnUse"
       x1="-55.213169"
       y1="18.063894"
       x2="3.6383934"
       y2="18.063894"
       gradientTransform="translate(-31,-4.25)" />
  </defs>
  <sodipodi:namedview
     id="base"
     pagecolor="#ffffff"
     bordercolor="#666666"
     borderopacity="1.0"
     inkscape:pageopacity="0.0"
     inkscape:pageshadow="2"
     inkscape:zoom="8"
     inkscape:cx="-46.248465"
     inkscape:cy="37.731164"
     inkscape:current-layer="layer1"
     showgrid="true"
     inkscape:grid-bbox="true"
     inkscape:document-units="px"
     inkscape:window-width="1280"
     inkscape:window-height="738"
     inkscape:window-x="-8"
     inkscape:window-y="-8" />
  <metadata
     id="metadata2388">
    <rdf:RDF>
      <cc:Work
         rdf:about="">
        <dc:format>image/svg+xml</dc:format>
        <dc:type
           rdf:resource="http://purl.org/dc/dcmitype/StillImage" />
      </cc:Work>
    </rdf:RDF>
  </metadata>
  <g
     id="layer1"
     inkscape:label="Layer 1"
     inkscape:groupmode="layer">
    <path
       transform="scale(1.0073595,0.9926943)"
       style="font-size:40.23707581px;font-style:normal;font-variant:normal;font-weight:bold;font-stretch:normal;text-align:start;line-height:125%;writing-mode:lr-tb;text-anchor:start;fill:#000066;fill-opacity:1;stroke:#000066;stroke-width:0.54162031;stroke-linecap:butt;stroke-linejoin:miter;stroke-miterlimit:4;stroke-opacity:1;font-family:'微软雅黑';-inkscape-font-specification:'微软雅黑 Bold'"
       d="M 6.4970413,5.9663941 L 15.731136,5.9663941 L 15.731136,2.6656965 L 20.839358,2.6656965 L 20.839358,5.9663941 L 30.584275,5.9663941 L 30.584275,2.6656965 L 35.692498,2.6656965 L 35.692498,5.9663941 L 44.926592,5.9663941 L 44.926592,10.799558 L 35.692498,10.799558 L 35.692498,14.53249 L 30.584275,14.53249 L 30.584275,10.799558 L 20.839358,10.799558 L 20.839358,14.53249 L 15.731136,14.53249 L 15.731136,10.799558 L 6.4970413,10.799558 L 6.4970413,5.9663941 M 6.6149234,25.141876 L 10.858677,25.141876 L 10.858677,15.868487 L 22.725471,15.868487 L 22.725471,12.724965 L 28.462398,12.724965 L 28.462398,15.868487 L 40.525662,15.868487 L 40.525662,25.141876 L 45.123062,25.141876 L 45.123062,29.97504 L 29.582278,29.97504 C 32.791262,33.223348 37.919126,35.240439 44.965886,36.026319 L 41.036484,41.252423 C 33.911141,39.877129 28.802923,37.034864 25.711817,32.725621 C 22.869532,36.93008 17.735119,39.811639 10.308561,41.370306 C 9.234521,39.955717 7.9640157,38.331566 6.4970413,36.497847 C 14.905952,34.847499 19.739112,32.673233 20.996534,29.97504 L 6.6149234,29.97504 L 6.6149234,25.141876 M 28.246281,25.141876 L 34.828029,25.141876 L 34.828029,20.505181 L 28.462398,20.505181 C 28.462375,21.972172 28.390336,23.517735 28.246281,25.141876 M 22.489707,25.141876 C 22.646866,24.028557 22.725454,22.482994 22.725471,20.505181 L 16.55631,20.505181 L 16.55631,25.141876 L 22.489707,25.141876"
       id="text3867" />
    <path
       sodipodi:type="arc"
       style="opacity:1;fill:#6b6b6b;fill-opacity:0.22110554;stroke:none;stroke-width:0.37799999;stroke-linejoin:round;stroke-miterlimit:4;stroke-dasharray:none;stroke-dashoffset:0;stroke-opacity:1"
       id="path2390"
       sodipodi:cx="25.357143"
       sodipodi:cy="45.357143"
       sodipodi:rx="15.642858"
       sodipodi:ry="2.3571429"
       d="M 41.000001,45.357143 A 15.642858,2.3571429 0 1 1 9.7142859,45.357143 A 15.642858,2.3571429 0 1 1 41.000001,45.357143 z"
       transform="matrix(1.2304582,0,0,1.4687983,-6.0580467,-22.40621)" />
    <text
       xml:space="preserve"
       style="font-size:12px;font-style:normal;font-weight:bold;fill:#000000;fill-opacity:1;stroke:none;stroke-width:1px;stroke-linecap:butt;stroke-linejoin:miter;stroke-opacity:1;font-family:Zawgyi-One"
       x="14.428571"
       y="15.714286"
       id="text2387"><tspan
         sodipodi:role="line"
         id="tspan2389"
         x="14.428571"
         y="15.714286" /></text>
    <text
       xml:space="preserve"
       style="font-size:12px;font-style:normal;font-weight:normal;fill:#000000;fill-opacity:1;stroke:none;stroke-width:1px;stroke-linecap:butt;stroke-linejoin:miter;stroke-opacity:1;font-family:Zawgyi-One"
       x="17"
       y="16.714287"
       id="text2396"><tspan
         sodipodi:role="line"
         id="tspan2398"
         x="17"
         y="16.714287"
         style="font-style:normal;font-weight:bold" /></text>
    <path
       style="font-size:28px;font-style:normal;font-variant:normal;font-weight:bold;font-stretch:normal;text-align:start;line-height:125%;writing-mode:lr-tb;text-anchor:start;fill:url(#linearGradient2404);fill-opacity:1;stroke:#0066f0;stroke-width:0.57300001;stroke-linecap:butt;stroke-linejoin:miter;stroke-miterlimit:4;stroke-dasharray:none;stroke-opacity:1;font-family:'微软雅黑';-inkscape-font-specification:'微软雅黑 Bold'"
       d="M 80.515223,-1.5609984 L 80.515223,5.2439769 L 65.653287,5.2439769 L 65.653287,26.888189 L 71.534238,26.888189 L 71.534238,24.122295 L 80.515223,24.122295 L 80.515223,36.502961 L 86.578527,36.502961 L 86.578527,24.122295 L 95.559512,24.122295 L 95.559512,26.800383 L 101.44046,26.800383 L 101.44046,5.2439769 L 86.578527,5.2439769 L 86.578527,-1.5609984 L 80.515223,-1.5609984 z M 71.534238,10.556248 L 80.515223,10.556248 L 80.515223,18.853927 L 71.534238,18.853927 L 71.534238,10.556248 z M 86.578527,10.556248 L 95.559512,10.556248 L 95.559512,18.853927 L 86.578527,18.853927 L 86.578527,10.556248 z"
       id="text2400" />
    <path
       transform="scale(1.0073595,0.9926943)"
       style="font-size:40.23707581px;font-style:normal;font-variant:normal;font-weight:bold;font-stretch:normal;text-align:start;line-height:125%;writing-mode:lr-tb;text-anchor:start;fill:url(#linearGradient3183);fill-opacity:1;stroke:#0066f0;stroke-width:0.54162031;stroke-linecap:butt;stroke-linejoin:miter;stroke-miterlimit:4;stroke-opacity:1;font-family:'微软雅黑';-inkscape-font-specification:'微软雅黑 Bold'"
       d="M 4.5116528,3.9659325 L 13.745747,3.9659325 L 13.745747,0.66523492 L 18.85397,0.66523492 L 18.85397,3.9659325 L 28.598887,3.9659325 L 28.598887,0.66523492 L 33.707109,0.66523492 L 33.707109,3.9659325 L 42.941204,3.9659325 L 42.941204,8.7990969 L 33.707109,8.7990969 L 33.707109,12.532029 L 28.598887,12.532029 L 28.598887,8.7990969 L 18.85397,8.7990969 L 18.85397,12.532029 L 13.745747,12.532029 L 13.745747,8.7990969 L 4.5116528,8.7990969 L 4.5116528,3.9659325 M 4.6295349,23.141414 L 8.873289,23.141414 L 8.873289,13.868025 L 20.740083,13.868025 L 20.740083,10.724504 L 26.47701,10.724504 L 26.47701,13.868025 L 38.540274,13.868025 L 38.540274,23.141414 L 43.137674,23.141414 L 43.137674,27.974578 L 27.596889,27.974578 C 30.805874,31.222887 35.933738,33.239978 42.980498,34.025857 L 39.051096,39.251962 C 31.925752,37.876667 26.817535,35.034403 23.726428,30.72516 C 20.884144,34.929619 15.74973,37.811177 8.3231727,39.369844 C 7.2491325,37.955255 5.9786272,36.331104 4.5116528,34.497386 C 12.920564,32.847038 17.753723,30.672771 19.011146,27.974578 L 4.6295349,27.974578 L 4.6295349,23.141414 M 26.260893,23.141414 L 32.842641,23.141414 L 32.842641,18.50472 L 26.47701,18.50472 C 26.476987,19.97171 26.404948,21.517274 26.260893,23.141414 M 20.504319,23.141414 C 20.661478,22.028095 20.740066,20.482532 20.740083,18.50472 L 14.570922,18.50472 L 14.570922,23.141414 L 20.504319,23.141414"
       id="text2398" />
    <text
       xml:space="preserve"
       style="font-size:40px;font-style:normal;font-weight:normal;fill:#000000;fill-opacity:1;stroke:none;stroke-width:1px;stroke-linecap:butt;stroke-linejoin:miter;stroke-opacity:1;font-family:Zawgyi-One"
       x="-29.428572"
       y="21.142857"
       id="text2412"><tspan
         sodipodi:role="line"
         id="tspan2414"
         x="-29.428572"
         y="21.142857" /></text>
    <text
       xml:space="preserve"
       style="font-size:20;font-style:normal;font-weight:normal;fill:#000000;fill-opacity:1;stroke:none;stroke-width:1px;stroke-linecap:butt;stroke-linejoin:miter;stroke-opacity:1;font-family:Zawgyi-One"
       x="-18.714287"
       y="34.285713"
       id="text2416"><tspan
         sodipodi:role="line"
         id="tspan2418"
         x="-18.714287"
         y="34.285713" /></text>
    <path
       style="font-size:40px;font-style:normal;font-weight:normal;fill:url(#linearGradient3320);fill-opacity:1;stroke:#007300;stroke-width:0.60000002;stroke-linecap:butt;stroke-linejoin:miter;stroke-miterlimit:4;stroke-opacity:1;font-family:Zawgyi-One"
       d="M -76.246376,23.464285 C -79.199508,23.464285 -81.59892,22.553153 -83.444618,20.730886 C -85.290322,18.908625 -86.213173,16.520932 -86.213173,13.567801 C -86.213173,10.708438 -85.272744,8.3559016 -83.391884,6.5101833 C -81.511029,4.664499 -79.129196,3.7416484 -76.246376,3.7416286 C -73.387014,3.7416484 -71.046196,4.664499 -69.223915,6.5101833 C -67.401668,8.3559016 -66.490536,10.708438 -66.490517,13.567801 C -66.490536,16.45062 -67.407528,18.820735 -69.241493,20.678152 C -71.075493,22.535575 -73.410451,23.464285 -76.246376,23.464285 L -76.246376,23.464285 z M -76.246376,6.7299099 C -78.262009,6.7299266 -79.928999,7.3773869 -81.247353,8.6722927 C -82.565716,9.9672281 -83.224895,11.599062 -83.224892,13.567801 C -83.224895,15.606871 -82.571575,17.268002 -81.264931,18.551199 C -79.958296,19.834406 -78.285446,20.476007 -76.246376,20.476004 C -74.301075,20.476007 -72.6751,19.816828 -71.368446,18.498465 C -70.061822,17.180111 -69.408502,15.536558 -69.408485,13.567801 C -69.408502,11.6225 -70.061822,9.9965249 -71.368446,8.6898708 C -72.6751,7.3832463 -74.301075,6.7299266 -76.246376,6.7299099 L -76.246376,6.7299099 z M -76.369423,3.6693252 C -78.408471,3.6693447 -80.128196,2.960361 -81.528603,1.5423721 C -82.928975,0.12442637 -83.629169,-1.6158063 -83.629189,-3.678331 C -83.629169,-5.7408022 -82.923115,-7.4722457 -81.511024,-8.8726669 C -80.098899,-10.273024 -78.361596,-10.973218 -76.29911,-10.973252 C -74.2366,-10.973218 -72.525665,-10.273024 -71.166298,-8.8726669 C -69.806917,-7.4722457 -69.12723,-5.7408022 -69.127235,-3.678331 C -69.12723,-1.6861187 -69.836214,0.036535829 -71.254189,1.4896377 C -72.672149,2.9427829 -74.377225,3.6693447 -76.369423,3.6693252 L -76.369423,3.6693252 z M -76.369423,-8.0728623 C -77.658472,-8.0728311 -78.707299,-7.6626752 -79.515907,-6.8423935 C -80.324485,-6.0220519 -80.728781,-4.9673654 -80.728798,-3.678331 C -80.728781,-2.4478367 -80.324485,-1.4312361 -79.515907,-0.62852631 C -78.707299,0.17423101 -77.693628,0.57559779 -76.474892,0.57557526 C -75.197537,0.57559779 -74.157499,0.18594974 -73.354774,-0.59337006 C -72.552032,-1.3726425 -72.150665,-2.4009617 -72.150673,-3.678331 C -72.150665,-4.9439279 -72.534454,-5.992755 -73.30204,-6.8248154 C -74.069608,-7.6568159 -75.092068,-8.0728311 -76.369423,-8.0728623 L -76.369423,-8.0728623 z M -44.974892,22.058035 C -45.560848,21.940849 -46.316706,21.65374 -47.24247,21.196707 C -47.746392,20.927178 -48.197564,20.464288 -48.595985,19.808035 C -48.994438,19.151789 -49.193657,18.536555 -49.193642,17.962332 L -49.193642,17.452566 L -50.388954,17.101004 C -51.373342,16.901791 -52.211232,16.298276 -52.902626,15.290457 C -53.570605,14.376403 -53.928027,13.392029 -53.974892,12.337332 C -54.103808,10.298282 -53.312793,8.5814873 -51.601845,7.1869411 C -52.679981,6.8822702 -53.582324,6.7299266 -54.308876,6.7299099 C -56.277634,6.7299266 -57.903609,7.3832463 -59.186806,8.6898708 C -60.470013,9.9965249 -61.111614,11.6225 -61.11161,13.567801 C -61.111614,15.536558 -60.505169,17.162533 -59.292274,18.44573 C -58.07939,19.728937 -56.488571,20.370538 -54.519814,20.370535 C -53.652637,20.370538 -52.574513,20.247491 -51.285439,20.001394 L -50.845985,22.919363 C -51.994435,23.282644 -53.148731,23.464285 -54.308876,23.464285 C -57.191696,23.464285 -59.550092,22.535575 -61.384071,20.678152 C -63.218057,18.820735 -64.135048,16.45062 -64.135048,13.567801 C -64.135048,10.708438 -63.218057,8.3559016 -61.384071,6.5101833 C -59.550092,4.664499 -57.191696,3.7416484 -54.308876,3.7416286 C -51.238577,3.7416484 -48.79522,4.5941866 -46.978798,6.2992458 C -45.162411,8.0043394 -44.254208,10.392032 -44.254189,13.462332 C -44.254208,14.177185 -44.494443,15.290465 -44.974892,16.802176 C -45.267879,17.118588 -45.713191,17.358822 -46.310829,17.522879 C -46.310847,18.02679 -46.263972,18.360774 -46.170204,18.524832 C -46.029597,18.888118 -45.719051,19.128352 -45.238564,19.245535 L -43.498329,19.684988 L -44.974892,22.058035 z M -49.633095,8.3470974 C -50.758108,9.3783615 -51.332326,10.60297 -51.355751,12.020926 C -51.379201,13.005311 -50.957327,13.772888 -50.090126,14.32366 C -49.35186,14.851012 -48.478814,15.091246 -47.470985,15.044363 C -47.318659,14.247497 -47.242487,13.57367 -47.24247,13.022879 C -47.242487,11.101016 -48.039361,9.5424238 -49.633095,8.3470974 L -49.633095,8.3470974 z M -46.469032,37.38616 C -48.77762,37.06974 -49.896759,35.903726 -49.826454,33.888113 C -52.263944,33.384197 -53.482693,31.983808 -53.482704,29.686941 C -53.482693,28.362717 -53.125271,27.331469 -52.410439,26.593191 C -52.914334,26.370532 -53.383084,26.259204 -53.816689,26.259207 C -55.164332,26.259204 -56.257104,26.692797 -57.095009,27.559988 C -57.932884,28.427171 -58.351829,29.528732 -58.351845,30.864676 C -58.351829,32.165448 -57.950462,33.234783 -57.147743,34.072683 C -56.344995,34.910563 -55.293238,35.329507 -53.99247,35.329519 C -53.347927,35.329507 -52.463163,35.224039 -51.338173,35.013113 L -50.969032,37.790457 C -51.976835,38.09513 -52.94949,38.247473 -53.887001,38.247488 C -55.949487,38.247473 -57.68972,37.53556 -59.107704,36.111746 C -60.525655,34.687906 -61.234638,32.938885 -61.234657,30.864676 C -61.234638,28.731858 -60.531514,26.965258 -59.125282,25.564871 C -57.719017,24.16448 -55.949487,23.464285 -53.816689,23.464285 C -51.601835,23.464285 -49.800079,24.129323 -48.411415,25.459402 C -47.022738,26.789477 -46.328403,28.556077 -46.328407,30.759207 C -46.328403,32.657635 -46.662387,33.700603 -47.33036,33.888113 C -47.459261,34.755289 -47.136996,35.188883 -46.363564,35.188894 C -46.222935,35.188883 -45.959263,35.153726 -45.572548,35.083426 L -46.469032,37.38616 z M -50.969032,27.349051 C -51.332304,27.923265 -51.513945,28.643967 -51.513954,29.51116 C -51.513945,30.132247 -51.297148,30.66545 -50.863564,31.110769 C -50.429962,31.556074 -49.902618,31.77873 -49.281532,31.778738 L -49.035439,31.778738 C -48.953401,31.485761 -48.912385,31.257246 -48.912392,31.093191 C -48.912385,29.35881 -49.597931,28.110765 -50.969032,27.349051 L -50.969032,27.349051 z M -37.222939,23.393972 C -37.820599,23.393972 -38.722942,23.247488 -39.92997,22.954519 L -39.92997,19.895926 C -38.804973,20.212335 -37.90263,20.370538 -37.222939,20.370535 C -35.207321,20.370538 -33.563768,19.734796 -32.292274,18.463308 C -31.020801,17.19183 -30.38506,15.548277 -30.385048,13.532644 C -30.38506,11.587344 -31.038379,9.9555093 -32.345009,8.6371365 C -33.651658,7.3187932 -35.277633,6.6596142 -37.222939,6.6595974 C -40.422159,6.6596142 -42.631141,8.4115656 -43.849892,11.915457 C -43.873328,12.102968 -44.091962,12.420217 -44.262729,13.154466 C -44.143334,12.551906 -44.392693,10.898345 -44.745258,9.807644 C -45.081503,8.7674283 -45.517617,8.0139716 -45.575651,7.8269489 C -43.866923,5.1683667 -40.950104,3.7064696 -37.222939,3.7064724 C -34.37529,3.7064746 -32.019824,4.6293428 -30.156532,6.4750271 C -28.293265,8.3207454 -27.361625,10.673282 -27.36161,13.532644 C -27.361625,16.462339 -28.272757,18.838313 -30.095009,20.660574 C -31.917285,22.482841 -34.293259,23.393972 -37.222939,23.393972 L -37.222939,23.393972 z"
       id="text2420"
       sodipodi:nodetypes="cssssssscccssssssscccssssssscccsssssssccccsccccccsssssccsssssssccccccccccsccccscsssssccssssssscscccssccscccccsssssccscsssscc" />
  </g>
</svg>
